<svg width="302" height="316" viewBox="0 0 302 316" fill="none" xmlns="http://www.w3.org/2000/svg">
<path opacity="0.4" d="M293.677 217.553L167.018 144.374L4.2247 238.435L0 241.038L129.734 316L296.891 219.411V215.702L293.677 217.553Z" fill="#D6D8E5"/>
<path d="M298.786 214.583L172.127 141.397L8.17787 236.128L4.96356 234.27V237.986L134.837 313.03L302 216.441V212.725L298.786 214.583Z" fill="#252935"/>
<path d="M134.837 309.313L4.96356 234.27L172.127 137.681L302 212.725L134.837 309.313Z" fill="#2B303F"/>
<path d="M8.20944 236.128C8.60728 236.039 12.0363 233.916 12.0363 233.916V209.363L8.20944 207.151V236.128Z" fill="#3A4151"/>
<path d="M134.913 305.231L11.6574 234.188V199.535L13.634 197.911L134.913 267.336V305.231Z" fill="#E6E9EF"/>
<path d="M295.098 212.63L134.913 305.231V267.336L291.606 176.758L295.098 178.919V212.63Z" fill="#F4F6F9"/>
<path d="M298.786 181.89L172.127 108.704L8.17787 203.434L4.96356 201.576V205.293L134.837 280.336L302 183.748V180.038L298.786 181.89Z" fill="#252935"/>
<path d="M134.837 276.62L4.96356 201.576L172.127 104.994L302 180.038L134.837 276.62Z" fill="#2B303F"/>
<path d="M4.96356 234.27V201.576L8.17787 203.434V239.711L4.96356 234.27Z" fill="#252935"/>
<path d="M288.537 175.784L168.508 106.429L13.1414 196.198L10.0913 194.441V197.961L133.17 269.074L291.587 177.541V174.021L288.537 175.784Z" fill="#E8A30A"/>
<path d="M133.17 265.554L10.0913 194.441L168.508 102.909L291.587 174.021L133.17 265.554Z" fill="#F9CB07"/>
<path d="M13.1414 196.198C13.514 196.116 16.7662 194.106 16.7662 194.106V170.836L13.1414 168.744V196.198Z" fill="#F9CB07"/>
<path d="M133.239 261.686L16.4378 194.359V161.527L18.307 159.984L133.239 225.776V261.686Z" fill="#E6E9EF"/>
<path d="M285.044 173.933L133.239 261.686V225.776L281.735 139.937L285.044 141.985V173.933Z" fill="#F4F6F9"/>
<path d="M288.537 144.804L168.508 75.4482L13.1414 165.217L10.0913 163.46V166.981L133.17 238.093L291.587 146.561V143.041L288.537 144.804Z" fill="#E8A30A"/>
<path d="M133.17 234.573L10.0913 163.46L168.508 71.9279L291.587 143.041L133.17 234.573Z" fill="#F9CB07"/>
<path d="M10.0913 194.441V163.46L13.1414 165.217V199.598L10.0913 194.441Z" fill="#E8A30A"/>
<path d="M282.392 136.651L167.719 70.3922L19.2859 156.161L16.3747 154.48V157.842L133.959 225.782L285.303 138.332V134.97L282.392 136.651Z" fill="#AB210D"/>
<path d="M133.959 222.42L16.3747 154.48L167.719 67.0299L285.303 134.97L133.959 222.42Z" fill="#FF582B"/>
<path d="M19.2859 156.161C19.6458 156.072 22.7528 154.157 22.7528 154.157V131.924L19.2859 129.927V156.161Z" fill="#FF582B"/>
<path d="M134.029 218.716L22.437 154.404V123.031L24.2241 121.559L134.029 184.411V218.716Z" fill="#E6E9EF"/>
<path d="M279.051 134.888L134.029 218.716V184.411L275.894 102.403L279.051 104.362V134.888Z" fill="#F4F6F9"/>
<path d="M282.392 107.054L167.719 40.7956L19.2859 126.558L16.3747 124.877V128.239L133.959 196.185L285.303 108.736V105.373L282.392 107.054Z" fill="#AB210D"/>
<path d="M133.959 192.817L16.3747 124.877L167.719 37.4334L285.303 105.373L133.959 192.817Z" fill="#FF582B"/>
<path d="M16.3747 154.48V124.877L19.2859 126.558V159.403L16.3747 154.48Z" fill="#AB210D"/>
<path d="M288.252 104.463L167.523 34.7031L11.2532 124.997L8.18417 123.227V126.773L131.983 198.303L291.321 106.233V102.694L288.252 104.463Z" fill="#A5AD00"/>
<path d="M131.983 194.757L8.18417 123.227L167.523 31.1639L291.321 102.694L131.983 194.757Z" fill="#B9CC00"/>
<path d="M11.2532 124.997C11.6258 124.915 14.897 122.892 14.897 122.892V99.5084L11.2532 97.3975V124.997Z" fill="#B9CC00"/>
<path d="M132.052 190.864L14.5686 123.152V90.1169L16.4505 88.5685L132.052 154.745V190.864Z" fill="#E6E9EF"/>
<path d="M284.741 102.605L132.052 190.864V154.745L281.413 68.4077L284.741 70.468V102.605Z" fill="#F4F6F9"/>
<path d="M288.252 73.2994L167.523 3.5392L11.2532 93.8394L8.18417 92.0698V95.609L131.983 167.139L291.321 75.069V71.5298L288.252 73.2994Z" fill="#A5AD00"/>
<path d="M131.983 163.6L8.18417 92.0698L167.523 0L291.321 71.5298L131.983 163.6Z" fill="#B9CC00"/>
<path d="M8.18417 123.227V92.0698L11.2532 93.8394V128.416L8.18417 123.227Z" fill="#A5AD00"/>
<path opacity="0.1" d="M223.208 94.5788L123.419 36.9214L133.706 30.9806L233.495 88.638L223.208 94.5788Z" fill="black"/>
<path opacity="0.1" d="M190.661 94.3766L123.773 55.7298L128.92 52.7594L195.808 91.4062L190.661 94.3766Z" fill="black"/>
<path opacity="0.1" d="M179.42 101.771L112.532 63.1178L117.673 60.1474L184.561 98.7942L179.42 101.771Z" fill="black"/>
<path opacity="0.1" d="M156.352 101.164L111.427 75.208L116.574 72.2376L161.492 98.1938L156.352 101.164Z" fill="black"/>
<path d="M64.2231 71.416C64.8546 70.3479 69.9507 69.6527 71.6116 73.944C72.2431 75.5682 72.1483 79.7268 72.6725 82.3433C73.1966 84.9598 74.447 86.4323 74.8953 88.5558C75.3437 90.6794 74.6112 94.2438 69.5087 94.8758C64.4062 95.5078 60.4783 93.713 59.2722 92.0824C58.066 90.4518 58.0092 86.9885 59.2722 85.1304C60.5351 83.2723 61.4761 81.7618 61.4445 79.3413L64.2231 71.416Z" fill="#3A2C6D"/>
<path d="M67.57 70.6639C67.57 70.6639 63.781 69.5642 61.4445 71.6246C60.6843 72.3284 60.1308 73.2268 59.8437 74.2225C59.5565 75.2183 59.5467 76.2737 59.8152 77.2746C60.1247 78.4818 60.7435 80.125 61.7097 80.2134C62.6759 80.3019 67.57 70.6639 67.57 70.6639Z" fill="#3A2C6D"/>
<path d="M69.0224 81.0603C69.0224 81.0603 68.7762 85.3137 68.8519 85.6234C68.9277 85.933 70.5191 86.2554 70.9611 86.6093C71.4032 86.9632 68.6562 91.2924 67.2543 91.9307C65.8523 92.569 61.514 90.9385 61.2108 88.7707C60.933 86.7862 62.4738 85.2378 63.0422 84.7006C63.4389 84.664 63.8376 84.6535 64.2357 84.669L64.362 82.6087C66.2628 82.0083 69.0224 81.0603 69.0224 81.0603Z" fill="#FFCEA9"/>
<path d="M56.5315 103.743C55.3316 105.408 53.9054 106.897 52.2941 108.167C51.8458 108.559 51.6184 108.976 50.8543 109.842C50.0956 110.719 49.1136 111.374 48.0126 111.738C47.0527 111.984 46.6486 111.921 46.4844 111.738C46.3202 111.554 46.4023 111.283 46.8191 111.106C47.5123 110.903 48.157 110.561 48.7135 110.101C48.7135 110.101 47.8231 110.518 47.2611 110.733C46.7519 110.91 46.2206 111.017 45.6824 111.049C45.1582 111.049 44.6025 110.417 45.0193 110.252C45.4361 110.088 45.8213 110.056 46.6486 109.753C47.0951 109.598 47.5197 109.386 47.9115 109.121C47.3376 109.289 46.7502 109.408 46.156 109.475C45.664 109.559 45.1584 109.502 44.6972 109.311C44.4509 109.203 44.2362 108.755 44.792 108.609C45.5131 108.536 46.2219 108.37 46.9011 108.116C47.5326 107.826 47.9557 107.516 47.8105 107.484C47.6653 107.453 47.299 107.623 46.6486 107.573C45.9981 107.522 45.3856 107.111 45.3856 106.764C45.3856 106.416 45.5245 106.606 46.1623 106.555C46.8369 106.389 47.5229 106.272 48.2147 106.208C48.8967 106.234 49.5786 106.153 50.2354 105.967C50.9301 105.759 52.4836 103.894 53.6708 102.175C54.9685 100.269 55.995 98.1905 56.7209 96.0008C57.4345 93.6498 58.287 89.2447 58.8932 87.7153C59.4995 86.1858 60.5478 85.4843 61.5455 85.4527C62.7201 85.4148 63.219 86.9569 62.9096 88.2904C62.3096 90.5782 59.7079 99.5653 56.5315 103.743Z" fill="#FFCEA9"/>
<path d="M69.6034 86.0405C70.7969 86.2238 72.1294 86.8621 72.3504 87.513C72.5714 88.2778 73.0387 91.8738 72.0094 94.6104C70.9801 97.347 69.8055 102.277 69.2119 103.458C66.1408 103.899 63.0107 103.298 60.3204 101.752C60.3204 101.752 60.0741 96.993 60.0552 95.432C56.2157 92.0761 59.4995 87.9428 62.7517 84.7259C63.1426 84.6944 63.5354 84.6944 63.9262 84.7259C63.9262 84.7259 61.0214 88.164 63.0358 90.1169C67.3616 88.7581 68.2015 86.8115 69.6034 86.0405Z" fill="#F4F4F4"/>
<path d="M61.0909 75.7958C61.5203 73.0655 63.4905 71.0052 66.3007 71.1695C67.0124 71.2106 67.7089 71.3917 68.3506 71.7025C68.9923 72.0132 69.5665 72.4474 70.0404 72.9804C70.5143 73.5134 70.8785 74.1346 71.1124 74.8085C71.3462 75.4824 71.445 76.1959 71.4032 76.9081C71.3546 77.7374 71.1143 78.5441 70.7012 79.2647C70.288 79.9852 69.7134 80.5999 69.0224 81.0603C68.9261 81.4747 68.7798 81.8758 68.5867 82.2548C67.5889 83.4177 64.943 84.1508 64.0715 84.1508C63.3137 84.1508 62.6633 83.4556 61.956 82.2548C60.4846 79.8532 60.8572 77.1482 61.0909 75.7958Z" fill="#FFCEA9"/>
<path d="M67.1722 71.2201C69.1487 71.6056 70.7717 72.1618 71.3085 74.102C71.6747 75.4355 72.1547 77.9825 71.6937 79.0569L71.4158 79.8279L69.0224 81.0603C69.0224 81.0603 67.9047 80.1313 68.2583 77.4074C68.245 77.0365 68.1268 76.6771 67.9173 76.3709C67.7692 76.1141 67.6586 75.8374 67.5889 75.5493C67.3077 74.8126 66.7536 74.2128 66.0418 73.8745C64.261 72.8696 61.6213 73.7354 61.2929 74.0957C61.7933 73.0131 62.6511 72.1361 63.722 71.6123C64.7928 71.0886 66.0112 70.95 67.1722 71.2201Z" fill="#3A2C6D"/>
<path d="M56.3041 136.582C55.3063 137.39 53.7781 136.828 53.6834 136.904C52.6667 137.921 51.1574 138.8 50.0207 139.704C49.3892 140.19 48.4294 140.848 48.6062 141.789C48.9156 143.477 51.6121 142.952 52.6288 142.421C53.6455 141.89 54.4728 141.05 55.439 140.456C56.121 140.026 56.7967 139.824 56.904 138.939C56.9672 138.408 56.4872 136.556 56.3041 136.582Z" fill="#38226D"/>
<path d="M56.8914 138.61C56.7588 139.438 56.0957 139.666 55.4137 140.089C54.4349 140.721 53.5761 141.574 52.5594 142.093C51.5427 142.611 49.2756 143.041 48.6188 141.833C48.9788 143.458 51.6248 142.952 52.6288 142.465C53.6329 141.979 54.4728 141.094 55.439 140.5C56.121 140.07 56.7967 139.868 56.9041 138.983C56.9171 138.859 56.9128 138.733 56.8914 138.61Z" fill="#9C73FF"/>
<path d="M51.4416 133.845C50.5259 134.591 49.143 134.174 49.0798 134.243C48.0135 135.149 46.896 135.993 45.7329 136.771C45.1645 137.22 44.2741 137.82 44.432 138.667C44.7225 140.209 47.1916 139.735 48.1199 139.261C49.0482 138.787 49.8123 137.997 50.6901 137.46C51.3216 137.068 51.9531 136.866 52.0352 136.076C52.0984 135.634 51.5995 133.826 51.4416 133.845Z" fill="#38226D"/>
<path d="M52.0289 135.792C51.9026 136.55 51.2964 136.765 50.6712 137.15C49.7745 137.706 48.9851 138.509 48.0568 138.983C47.1285 139.457 45.0509 139.849 44.4446 138.749C44.773 140.234 47.198 139.767 48.1199 139.299C49.0419 138.831 49.8124 138.035 50.6901 137.498C51.3216 137.106 51.9531 136.904 52.0352 136.114C52.0454 136.007 52.0433 135.898 52.0289 135.792Z" fill="#9C73FF"/>
<path d="M65.2714 104.508C62.5638 104.865 59.8102 104.467 57.3145 103.357C57.3587 104.198 57.4029 104.95 57.4029 104.95C54.1633 107.244 47.6653 111.099 47.2422 113.76C47.6653 122.172 48.9409 134.18 49.3071 134.351C50.3239 134.837 51.0311 134.761 51.5111 134.275C51.5111 134.275 53.5508 127.152 52.9572 116.699C52.9572 116.699 64.3241 111.681 65.0314 108.932C65.3619 107.824 65.4671 106.661 65.3408 105.512C65.3345 105.177 65.3092 104.842 65.2714 104.508Z" fill="#FFCEA9"/>
<path d="M69.0351 103.414C66.7869 104.463 64.7283 104.596 62.1897 104.331C62.1897 105.456 62.3538 107.573 62.3538 107.573C59.1143 109.861 52.6162 113.722 52.1868 116.383C52.6162 124.788 53.3992 136.967 53.7718 137.119C54.2077 137.306 54.685 137.375 55.1559 137.32C55.6269 137.264 56.0751 137.086 56.4557 136.803C56.4557 136.803 58.5017 129.769 57.9081 119.322C57.9081 119.126 67.6205 114.341 68.8519 113.071C70.0833 111.801 70.3233 109.911 70.2854 108.135C70.1927 106.493 69.7673 104.887 69.0351 103.414Z" fill="#FFCEA9"/>
<path d="M71.4158 105.196C71.4158 105.196 75.0027 111.561 69.0224 114.834C62.7075 118.291 58.8554 119.1 58.8554 119.1L57.9081 119.322C58.2066 121.517 58.2066 123.743 57.9081 125.939C57.9081 125.939 53.4056 127.512 47.659 122.45L45.7645 116.313L45.5434 114.683C45.4335 114.129 45.463 113.556 45.6295 113.017C45.796 112.477 46.0941 111.988 46.497 111.592C47.88 110.328 52.2499 107.168 54.9654 105.304C57.6808 103.439 59.8216 101.752 59.8216 101.752L60.3015 101.31C60.3015 101.31 63.5221 103.876 69.414 103.016C70.1912 103.633 70.8668 104.369 71.4158 105.196Z" fill="#8C50FF"/>
<path d="M67.8542 114.645C68.4016 114.149 68.9818 113.691 69.5908 113.273C70.2342 112.943 70.8239 112.517 71.34 112.009C71.8894 111.46 72.704 109.146 73.1271 106.89C73.5193 104.374 73.4766 101.808 73.0008 99.3062C72.2561 96.3103 71.2502 93.3856 69.9949 90.5656C69.1929 88.8782 69.6476 87.848 70.3738 87.1022C71.2327 86.2238 72.1231 86.2427 73.1398 88.6001C74.5726 91.9011 75.6317 95.3522 76.2972 98.889C76.707 101.456 76.6729 104.075 76.1962 106.631C75.7707 108.872 75.0774 111.053 74.1312 113.128C73.8723 113.76 73.8281 114.253 73.4618 115.473C73.1133 116.693 72.4765 117.812 71.6052 118.734C70.8285 119.461 70.4307 119.6 70.216 119.505C70.0012 119.41 69.9634 119.107 70.2791 118.734C70.8228 118.184 71.2653 117.542 71.5863 116.838C71.5863 116.838 70.9548 117.685 70.5001 118.152C70.1119 118.575 69.6703 118.944 69.1866 119.252C68.713 119.536 67.9615 119.202 68.2709 118.816C68.5804 118.43 68.9024 118.222 69.5339 117.514C69.8702 117.138 70.1625 116.724 70.4054 116.282C69.9543 116.731 69.4663 117.141 68.9466 117.508C68.5462 117.83 68.062 118.032 67.551 118.089C67.2858 118.089 66.9195 117.78 67.3679 117.356C68.0032 116.917 68.584 116.403 69.0982 115.827C69.5781 115.195 69.8244 114.708 69.6729 114.721C69.5213 114.733 69.2624 115.106 68.6435 115.391C68.0247 115.675 67.3174 115.58 67.1911 115.239C67.0648 114.898 67.2921 115.024 67.8542 114.645Z" fill="#FFCEA9"/>
<path d="M74.7122 91.7791C74.7122 91.7791 72.5336 93.713 70.1086 93.3211L69.1677 89.2637C69.1677 89.2637 68.5362 87.1338 70.3549 86.3249C72.1736 85.5159 73.9228 87.6331 74.7122 91.7791Z" fill="#EDEDED"/>
<path d="M62.7517 84.688C62.7517 84.688 60.3962 83.9738 57.8892 89.2005L58.8301 89.763C58.8301 89.763 61.293 86.0342 62.7517 84.688Z" fill="#EDEDED"/>
<path d="M46.8127 107.762L54.7254 103.193C54.7943 103.152 54.8728 103.131 54.9527 103.131C55.0327 103.131 55.1112 103.152 55.1801 103.193L69.073 111.213L60.933 115.921L46.8127 107.762Z" fill="#F4F4F4"/>
<path d="M61.1225 114.108L61.754 114.462C61.8045 114.462 61.7982 114.537 61.754 114.569L61.1793 114.904C61.149 114.919 61.1154 114.928 61.0814 114.928C61.0474 114.928 61.0138 114.919 60.9835 114.904L60.352 114.556C60.3015 114.525 60.3078 114.48 60.352 114.443L60.933 114.114C60.9617 114.097 60.9939 114.088 61.0269 114.087C61.06 114.086 61.0928 114.093 61.1225 114.108Z" fill="#3A2C6D"/>
<path d="M60.2699 113.615L60.9014 113.962C60.9456 113.994 60.9393 114.044 60.9014 114.076L60.3267 114.411C60.2961 114.425 60.2627 114.432 60.2289 114.432C60.1951 114.432 60.1617 114.425 60.131 114.411L59.4995 114.063C59.449 114.032 59.4553 113.981 59.4995 113.95L60.0741 113.615C60.1044 113.599 60.138 113.591 60.172 113.591C60.2061 113.591 60.2396 113.599 60.2699 113.615Z" fill="#3A2C6D"/>
<path d="M59.3985 113.128L60.03 113.476C60.0805 113.507 60.0742 113.551 60.03 113.589L59.4553 113.918C59.425 113.934 59.3915 113.942 59.3574 113.942C59.3234 113.942 59.2898 113.934 59.2595 113.918L58.628 113.564C58.5838 113.564 58.5838 113.488 58.628 113.457L59.2027 113.122C59.2332 113.106 59.2672 113.098 59.3014 113.1C59.3356 113.101 59.369 113.11 59.3985 113.128Z" fill="#3A2C6D"/>
<path d="M58.5523 112.622L59.1838 112.976C59.2343 112.976 59.228 113.052 59.1838 113.084L58.6091 113.419C58.5788 113.434 58.5453 113.442 58.5112 113.442C58.4772 113.442 58.4436 113.434 58.4133 113.419L57.7818 113.071C57.7313 113.071 57.7376 112.995 57.7818 112.957L58.3628 112.629C58.3915 112.612 58.4237 112.603 58.4568 112.602C58.4898 112.601 58.5226 112.608 58.5523 112.622Z" fill="#3A2C6D"/>
<path d="M57.6997 112.129L58.3312 112.477C58.3754 112.509 58.3691 112.559 58.3312 112.591L57.7566 112.926C57.7259 112.94 57.6925 112.947 57.6587 112.947C57.6249 112.947 57.5915 112.94 57.5608 112.926L56.9293 112.578C56.8788 112.578 56.8851 112.496 56.9293 112.464L57.504 112.129C57.5343 112.114 57.5678 112.106 57.6018 112.106C57.6359 112.106 57.6694 112.114 57.6997 112.129Z" fill="#3A2C6D"/>
<path d="M56.8346 111.636L57.4661 111.984C57.5166 111.984 57.5103 112.06 57.4661 112.098L56.8851 112.426C56.8559 112.442 56.8234 112.45 56.7904 112.45C56.7573 112.45 56.7248 112.442 56.6957 112.426L56.0642 112.073C56.0136 112.073 56.02 111.997 56.0642 111.965L56.6388 111.63C56.6696 111.616 56.7034 111.609 56.7375 111.61C56.7715 111.611 56.8048 111.62 56.8346 111.636Z" fill="#3A2C6D"/>
<path d="M55.9821 111.137L56.6136 111.491C56.6641 111.491 56.6578 111.567 56.6136 111.599L56.0389 111.934C56.0086 111.949 55.9751 111.957 55.941 111.957C55.907 111.957 55.8734 111.949 55.8431 111.934L55.2116 111.586C55.1611 111.586 55.1674 111.51 55.2116 111.472L55.7926 111.144C55.8213 111.127 55.8535 111.118 55.8866 111.117C55.9196 111.116 55.9524 111.123 55.9821 111.137Z" fill="#3A2C6D"/>
<path d="M55.1295 110.644L55.761 110.992C55.8116 110.992 55.8052 111.074 55.761 111.106L55.1864 111.441C55.1557 111.455 55.1223 111.462 55.0885 111.462C55.0547 111.462 55.0213 111.455 54.9906 111.441L54.3591 111.093C54.3149 111.093 54.3212 111.011 54.3591 110.979L54.9338 110.644C54.9641 110.629 54.9976 110.621 55.0316 110.621C55.0657 110.621 55.0992 110.629 55.1295 110.644Z" fill="#3A2C6D"/>
<path d="M54.2707 110.151L54.9022 110.499C54.9527 110.499 54.9464 110.575 54.9022 110.613L54.3212 110.941C54.292 110.957 54.2595 110.965 54.2265 110.965C54.1935 110.965 54.161 110.957 54.1318 110.941L53.5003 110.587C53.4498 110.587 53.4561 110.512 53.5003 110.48L54.0749 110.145C54.1057 110.13 54.1395 110.123 54.1736 110.124C54.2076 110.126 54.2409 110.135 54.2707 110.151Z" fill="#3A2C6D"/>
<path d="M53.4119 109.652L54.0434 110.006C54.0939 110.006 54.0876 110.082 54.0434 110.113L53.4624 110.448C53.4332 110.464 53.4007 110.472 53.3677 110.472C53.3346 110.472 53.3021 110.464 53.273 110.448L52.6415 110.101C52.5909 110.069 52.5973 110.025 52.6415 109.987L53.2224 109.658C53.2511 109.642 53.2833 109.633 53.3164 109.632C53.3494 109.63 53.3822 109.637 53.4119 109.652Z" fill="#3A2C6D"/>
<path d="M52.5594 109.159L53.1909 109.507C53.2414 109.507 53.2351 109.589 53.1909 109.62L52.6162 109.955C52.5855 109.97 52.5521 109.977 52.5183 109.977C52.4845 109.977 52.4511 109.97 52.4204 109.955L51.7889 109.608C51.7447 109.576 51.7511 109.526 51.7889 109.494L52.3636 109.159C52.3939 109.144 52.4274 109.135 52.4615 109.135C52.4955 109.135 52.5291 109.144 52.5594 109.159Z" fill="#3A2C6D"/>
<path d="M51.7005 108.666L52.332 109.014C52.3825 109.014 52.3762 109.09 52.332 109.127L51.751 109.456C51.7219 109.472 51.6893 109.48 51.6563 109.48C51.6233 109.48 51.5908 109.472 51.5616 109.456L50.9301 109.102C50.8796 109.102 50.8859 109.026 50.9301 108.995L51.5048 108.66C51.5355 108.645 51.5694 108.638 51.6034 108.639C51.6374 108.64 51.6707 108.65 51.7005 108.666Z" fill="#3A2C6D"/>
<path d="M50.8417 108.167L51.4732 108.521C51.5237 108.521 51.5174 108.597 51.4732 108.628L50.8922 108.963C50.863 108.979 50.8305 108.987 50.7975 108.987C50.7645 108.987 50.7319 108.979 50.7028 108.963L50.0713 108.616C50.0207 108.584 50.0271 108.54 50.0713 108.502L50.6522 108.173C50.6809 108.157 50.7132 108.147 50.7462 108.146C50.7792 108.145 50.812 108.152 50.8417 108.167Z" fill="#3A2C6D"/>
<path d="M49.5724 107.44L50.5891 108.028C50.6396 108.059 50.6333 108.11 50.5891 108.142L50.0144 108.476C49.9837 108.491 49.9503 108.498 49.9165 108.498C49.8827 108.498 49.8493 108.491 49.8187 108.476L48.8019 107.889C48.7514 107.857 48.7577 107.813 48.8019 107.775L49.3829 107.44C49.4125 107.426 49.4449 107.419 49.4776 107.419C49.5104 107.419 49.5428 107.426 49.5724 107.44Z" fill="#3A2C6D"/>
<path d="M60.6867 112.894L61.3182 113.248C61.3687 113.248 61.3624 113.324 61.3182 113.356L60.7435 113.69C60.7132 113.706 60.6797 113.714 60.6456 113.714C60.6116 113.714 60.5781 113.706 60.5478 113.69L59.9163 113.343C59.8721 113.343 59.8784 113.261 59.9163 113.229L60.4909 112.894C60.5216 112.88 60.555 112.873 60.5888 112.873C60.6226 112.873 60.656 112.88 60.6867 112.894Z" fill="#3A2C6D"/>
<path d="M59.8279 112.401L60.4594 112.749C60.5036 112.749 60.4973 112.825 60.4594 112.863L59.8847 113.191C59.8544 113.207 59.8209 113.215 59.7868 113.215C59.7528 113.215 59.7192 113.207 59.6889 113.191L59.0574 112.837C59.0069 112.837 59.0132 112.761 59.0574 112.73L59.6321 112.395C59.6629 112.38 59.6967 112.373 59.7307 112.374C59.7648 112.375 59.7981 112.385 59.8279 112.401Z" fill="#3A2C6D"/>
<path d="M58.969 111.902L59.6005 112.256C59.6447 112.256 59.6384 112.332 59.6005 112.363L59.0259 112.698C58.9956 112.714 58.962 112.722 58.928 112.722C58.894 112.722 58.8604 112.714 58.8301 112.698L58.1986 112.351C58.1481 112.319 58.1544 112.275 58.1986 112.237L58.7733 111.902C58.804 111.888 58.8374 111.88 58.8712 111.88C58.905 111.88 58.9383 111.888 58.969 111.902Z" fill="#3A2C6D"/>
<path d="M58.0976 111.409L58.7291 111.757C58.7796 111.757 58.7733 111.832 58.7291 111.87L58.1481 112.205C58.1185 112.219 58.0861 112.227 58.0534 112.227C58.0206 112.227 57.9883 112.219 57.9587 112.205L57.3272 111.851C57.2766 111.851 57.283 111.776 57.3272 111.744L57.9018 111.409C57.9321 111.393 57.9657 111.385 57.9997 111.385C58.0337 111.385 58.0673 111.393 58.0976 111.409Z" fill="#3A2C6D"/>
<path d="M57.2577 110.916L57.8892 111.264C57.9397 111.264 57.9334 111.346 57.8892 111.377L57.3082 111.712C57.2786 111.726 57.2462 111.734 57.2135 111.734C57.1807 111.734 57.1484 111.726 57.1187 111.712L56.4873 111.365C56.4367 111.333 56.443 111.283 56.4873 111.251L57.0682 110.916C57.0974 110.901 57.1299 110.892 57.163 110.892C57.196 110.892 57.2285 110.901 57.2577 110.916Z" fill="#3A2C6D"/>
<path d="M56.3988 110.417L57.0303 110.771C57.0809 110.771 57.0745 110.846 57.0303 110.878L56.4494 111.213C56.4202 111.229 56.3877 111.237 56.3546 111.237C56.3216 111.237 56.2891 111.229 56.2599 111.213L55.6284 110.865C55.5779 110.865 55.5842 110.79 55.6284 110.758L56.2094 110.423C56.2385 110.408 56.2706 110.4 56.3034 110.399C56.3362 110.397 56.3688 110.404 56.3988 110.417Z" fill="#3A2C6D"/>
<path d="M55.5716 109.924L56.2031 110.271C56.2536 110.303 56.2473 110.354 56.2031 110.385L55.6221 110.72C55.5929 110.736 55.5604 110.744 55.5274 110.744C55.4943 110.744 55.4618 110.736 55.4327 110.72L54.8012 110.372C54.7506 110.341 54.757 110.29 54.8012 110.259L55.3821 109.924C55.4113 109.908 55.4438 109.9 55.4769 109.9C55.5099 109.9 55.5424 109.908 55.5716 109.924Z" fill="#3A2C6D"/>
<path d="M54.6812 109.431L55.3127 109.778C55.3632 109.778 55.3569 109.854 55.3127 109.886L54.738 110.221C54.7072 110.235 54.6739 110.242 54.6401 110.242C54.6064 110.242 54.573 110.235 54.5422 110.221L53.9107 109.867C53.8602 109.867 53.8665 109.791 53.9107 109.759L54.4917 109.424C54.5214 109.41 54.5542 109.403 54.5872 109.404C54.6203 109.405 54.6525 109.414 54.6812 109.431Z" fill="#3A2C6D"/>
<path d="M53.8223 108.932L54.4538 109.279C54.5044 109.311 54.498 109.361 54.4538 109.393L53.8792 109.728C53.8489 109.743 53.8153 109.751 53.7813 109.751C53.7473 109.751 53.7137 109.743 53.6834 109.728L53.0519 109.38C53.0014 109.349 53.0077 109.298 53.0519 109.266L53.6329 108.932C53.6625 108.917 53.6949 108.91 53.7276 108.91C53.7604 108.91 53.7927 108.917 53.8223 108.932Z" fill="#3A2C6D"/>
<path d="M52.9698 108.439L53.6013 108.786C53.6518 108.786 53.6455 108.862 53.6013 108.9L53.0267 109.229C52.9964 109.244 52.9628 109.252 52.9288 109.252C52.8947 109.252 52.8612 109.244 52.8309 109.229L52.1994 108.875C52.1552 108.875 52.1615 108.799 52.1994 108.767L52.7741 108.432C52.8049 108.418 52.8387 108.411 52.8727 108.412C52.9067 108.413 52.94 108.422 52.9698 108.439Z" fill="#3A2C6D"/>
<path d="M52.111 107.939L52.7425 108.287C52.793 108.287 52.7867 108.369 52.7425 108.401L52.1678 108.736C52.1375 108.751 52.104 108.759 52.07 108.759C52.0359 108.759 52.0024 108.751 51.9721 108.736L51.3406 108.388C51.2964 108.388 51.3027 108.306 51.3406 108.274L51.9152 107.939C51.9459 107.925 51.9793 107.918 52.0131 107.918C52.0469 107.918 52.0803 107.925 52.111 107.939Z" fill="#3A2C6D"/>
<path d="M51.2522 107.44L51.8837 107.788C51.9279 107.788 51.9216 107.863 51.8837 107.901L51.309 108.23C51.2787 108.246 51.2452 108.254 51.2111 108.254C51.1771 108.254 51.1435 108.246 51.1133 108.23L50.4818 107.876C50.4312 107.876 50.4376 107.8 50.4818 107.769L51.0564 107.434C51.0872 107.419 51.121 107.412 51.1551 107.413C51.1891 107.414 51.2224 107.423 51.2522 107.44Z" fill="#3A2C6D"/>
<path d="M61.5455 113.393L62.5623 113.981C62.6128 113.981 62.6065 114.057 62.5623 114.089L61.9813 114.424C61.9521 114.439 61.9196 114.447 61.8866 114.447C61.8535 114.447 61.821 114.439 61.7918 114.424L60.7688 113.836C60.7246 113.836 60.7309 113.76 60.7688 113.728L61.3435 113.393C61.3746 113.377 61.4093 113.368 61.4445 113.368C61.4797 113.368 61.5144 113.377 61.5455 113.393Z" fill="#3A2C6D"/>
<path d="M49.6166 107.402L50.2481 107.756C50.2755 107.77 50.3058 107.777 50.3365 107.777C50.3672 107.777 50.3975 107.77 50.4249 107.756L51.0564 107.408C51.1069 107.377 51.1069 107.333 51.0564 107.301H51.0059C50.9962 107.297 50.9879 107.291 50.982 107.282C50.9761 107.274 50.9729 107.264 50.9729 107.254C50.9729 107.243 50.9761 107.233 50.982 107.225C50.9879 107.216 50.9962 107.21 51.0059 107.206L51.6374 106.833C51.6879 106.802 51.6879 106.757 51.6374 106.726L51.2522 106.505C51.2232 106.492 51.1921 106.486 51.1606 106.486C51.1291 106.486 51.098 106.492 51.069 106.505L50.4375 106.852L50.3112 106.928L50.2228 106.979L50.1281 107.029L49.6103 107.333C49.6022 107.343 49.5983 107.356 49.5995 107.369C49.6007 107.382 49.6068 107.394 49.6166 107.402Z" fill="#3A2C6D"/>
<path d="M64.4441 112.186L65.0756 112.54C65.1261 112.54 65.1198 112.616 65.0756 112.648L64.4946 112.983C64.4654 112.998 64.4329 113.006 64.3999 113.006C64.3669 113.006 64.3344 112.998 64.3052 112.983L63.6737 112.635C63.6232 112.635 63.6295 112.559 63.6737 112.521L64.2483 112.193C64.2781 112.176 64.3114 112.167 64.3455 112.166C64.3795 112.165 64.4133 112.172 64.4441 112.186Z" fill="#3A2C6D"/>
<path d="M63.5916 111.693L64.2231 112.041C64.2736 112.073 64.2673 112.123 64.2231 112.155L63.6484 112.49C63.6181 112.505 63.5846 112.513 63.5505 112.513C63.5165 112.513 63.483 112.505 63.4527 112.49L62.8212 112.142C62.777 112.142 62.7833 112.06 62.8212 112.028L63.3958 111.693C63.4265 111.679 63.4599 111.672 63.4937 111.672C63.5275 111.672 63.5609 111.679 63.5916 111.693Z" fill="#3A2C6D"/>
<path d="M62.7327 111.232L63.3642 111.58C63.4148 111.611 63.4084 111.662 63.3642 111.693L62.7833 112.028C62.7541 112.044 62.7216 112.052 62.6885 112.052C62.6555 112.052 62.623 112.044 62.5938 112.028L61.9623 111.681C61.9118 111.681 61.9181 111.599 61.9623 111.567L62.518 111.232C62.5509 111.214 62.5878 111.204 62.6254 111.204C62.663 111.204 62.6999 111.214 62.7327 111.232Z" fill="#3A2C6D"/>
<path d="M55.4579 106.998L56.0894 107.345C56.1399 107.377 56.1336 107.427 56.0894 107.459L55.5085 107.794C55.4788 107.808 55.4465 107.815 55.4137 107.815C55.381 107.815 55.3486 107.808 55.319 107.794L54.6875 107.446C54.637 107.415 54.6433 107.364 54.6875 107.333L55.2685 106.998C55.2977 106.982 55.3302 106.974 55.3632 106.974C55.3962 106.974 55.4288 106.982 55.4579 106.998Z" fill="#3A2C6D"/>
<path d="M54.6054 106.505L55.2369 106.852C55.2811 106.884 55.2811 106.928 55.2369 106.966L54.6622 107.295C54.6331 107.31 54.6005 107.318 54.5675 107.318C54.5345 107.318 54.502 107.31 54.4728 107.295L53.8413 106.941C53.7908 106.941 53.7971 106.865 53.8413 106.833L54.4159 106.498C54.4459 106.485 54.4786 106.478 54.5114 106.479C54.5443 106.481 54.5764 106.489 54.6054 106.505Z" fill="#3A2C6D"/>
<path d="M53.7529 106.012L54.3528 106.359C54.4033 106.359 54.397 106.435 54.3528 106.473L53.7781 106.802C53.7478 106.817 53.7143 106.825 53.6803 106.825C53.6462 106.825 53.6127 106.817 53.5824 106.802L52.9509 106.448C52.9067 106.448 52.913 106.372 52.9509 106.34L53.5255 106.005C53.5602 105.985 53.5999 105.975 53.6401 105.976C53.6803 105.977 53.7194 105.989 53.7529 106.012Z" fill="#3A2C6D"/>
<path d="M52.8941 105.544L53.5256 105.892C53.5761 105.892 53.5698 105.967 53.5256 105.999L52.9446 106.334C52.915 106.348 52.8826 106.355 52.8499 106.355C52.8171 106.355 52.7847 106.348 52.7551 106.334L52.1236 105.98C52.0731 105.98 52.0794 105.904 52.1236 105.873L52.7046 105.538C52.7343 105.523 52.7671 105.516 52.8001 105.517C52.8332 105.518 52.8654 105.528 52.8941 105.544Z" fill="#3A2C6D"/>
<path d="M61.6592 110.6L62.4865 111.074C62.537 111.106 62.5307 111.156 62.4865 111.188L61.9055 111.523C61.8759 111.537 61.8435 111.544 61.8108 111.544C61.778 111.544 61.7456 111.537 61.716 111.523L60.8888 111.049C60.8383 111.017 60.8446 110.967 60.8888 110.935L61.4697 110.6C61.4989 110.585 61.5314 110.576 61.5645 110.576C61.5975 110.576 61.63 110.585 61.6592 110.6Z" fill="#3A2C6D"/>
<path d="M56.3104 107.491L57.1377 107.965C57.1882 107.965 57.1819 108.047 57.1377 108.078L56.5567 108.413C56.5275 108.429 56.495 108.437 56.462 108.437C56.429 108.437 56.3965 108.429 56.3673 108.413L55.54 107.939C55.4895 107.908 55.4958 107.857 55.54 107.826L56.121 107.491C56.1502 107.475 56.1827 107.467 56.2157 107.467C56.2487 107.467 56.2813 107.475 56.3104 107.491Z" fill="#3A2C6D"/>
<path d="M57.3903 108.11L61.4129 110.436C61.4634 110.436 61.4571 110.512 61.4129 110.549L60.8383 110.878C60.8091 110.894 60.7766 110.902 60.7435 110.902C60.7105 110.902 60.678 110.894 60.6488 110.878L56.6199 108.552C56.5757 108.521 56.582 108.47 56.6199 108.439L57.1945 108.104C57.2257 108.09 57.2593 108.084 57.2931 108.085C57.3269 108.086 57.3601 108.095 57.3903 108.11Z" fill="#3A2C6D"/>
<path d="M61.2551 112.281L61.8865 112.629C61.9371 112.629 61.9308 112.711 61.8865 112.742L61.3056 113.077C61.276 113.091 61.2436 113.099 61.2108 113.099C61.1781 113.099 61.1457 113.091 61.1161 113.077L60.4846 112.73C60.4341 112.73 60.4404 112.648 60.4846 112.616L61.0656 112.281C61.0948 112.266 61.1273 112.258 61.1603 112.258C61.1934 112.258 61.2259 112.266 61.2551 112.281Z" fill="#3A2C6D"/>
<path d="M60.4278 111.788L61.0593 112.136C61.1035 112.136 61.0972 112.212 61.0593 112.25L60.4846 112.578C60.4543 112.594 60.4208 112.602 60.3867 112.602C60.3527 112.602 60.3191 112.594 60.2889 112.578L59.6574 112.224C59.6068 112.224 59.6132 112.148 59.6574 112.117L60.232 111.782C60.2628 111.767 60.2966 111.76 60.3307 111.761C60.3647 111.762 60.398 111.772 60.4278 111.788Z" fill="#3A2C6D"/>
<path d="M59.569 111.289L60.2004 111.643C60.251 111.643 60.2447 111.719 60.2004 111.75L59.6195 112.085C59.5903 112.101 59.5578 112.109 59.5247 112.109C59.4917 112.109 59.4592 112.101 59.43 112.085L58.7985 111.738C58.748 111.738 58.7543 111.662 58.7985 111.63L59.3795 111.295C59.4082 111.279 59.4404 111.27 59.4734 111.268C59.5065 111.267 59.5393 111.274 59.569 111.289Z" fill="#3A2C6D"/>
<path d="M58.7291 110.796L59.3606 111.15C59.4111 111.15 59.4048 111.226 59.3606 111.257L58.7859 111.592C58.7556 111.608 58.7221 111.616 58.688 111.616C58.654 111.616 58.6204 111.608 58.5901 111.592L57.9587 111.245C57.9145 111.213 57.9208 111.162 57.9587 111.131L58.5333 110.796C58.564 110.782 58.5974 110.774 58.6312 110.774C58.665 110.774 58.6984 110.782 58.7291 110.796Z" fill="#3A2C6D"/>
<path d="M57.8576 110.303L58.4891 110.651C58.5396 110.651 58.5333 110.733 58.4891 110.764L57.9081 111.099C57.8785 111.113 57.8462 111.121 57.8134 111.121C57.7807 111.121 57.7483 111.113 57.7187 111.099L57.0872 110.752C57.0367 110.72 57.043 110.67 57.0872 110.638L57.6682 110.303C57.6973 110.287 57.7299 110.279 57.7629 110.279C57.7959 110.279 57.8284 110.287 57.8576 110.303Z" fill="#3A2C6D"/>
<path d="M57.0051 109.81L57.6366 110.158C57.6871 110.158 57.6808 110.233 57.6366 110.271L57.0619 110.6C57.0317 110.616 56.9981 110.624 56.9641 110.624C56.93 110.624 56.8965 110.616 56.8662 110.6L56.2347 110.246C56.1905 110.246 56.1968 110.17 56.2347 110.139L56.8093 109.804C56.8401 109.789 56.874 109.782 56.908 109.783C56.942 109.784 56.9753 109.793 57.0051 109.81Z" fill="#3A2C6D"/>
<path d="M56.1463 109.336L56.7778 109.69C56.8283 109.69 56.822 109.766 56.7778 109.797L56.1968 110.132C56.1676 110.148 56.1351 110.156 56.102 110.156C56.069 110.156 56.0365 110.148 56.0073 110.132L55.3758 109.785C55.3253 109.785 55.3316 109.709 55.3758 109.677L55.9568 109.342C55.9859 109.327 56.0181 109.319 56.0508 109.318C56.0836 109.317 56.1162 109.323 56.1463 109.336Z" fill="#3A2C6D"/>
<path d="M55.2937 108.818L55.9252 109.172C55.9758 109.172 55.9694 109.248 55.9252 109.279L55.3506 109.614C55.3203 109.63 55.2867 109.638 55.2527 109.638C55.2187 109.638 55.1851 109.63 55.1548 109.614L54.5233 109.266C54.4791 109.235 54.4854 109.184 54.5233 109.153L55.098 108.818C55.1287 108.804 55.1621 108.796 55.1959 108.796C55.2297 108.796 55.2631 108.804 55.2937 108.818Z" fill="#3A2C6D"/>
<path d="M54.4349 108.325L55.0664 108.672C55.1169 108.704 55.1106 108.755 55.0664 108.786L54.4854 109.121C54.4558 109.135 54.4235 109.142 54.3907 109.142C54.3579 109.142 54.3256 109.135 54.296 109.121L53.6645 108.774C53.614 108.742 53.6203 108.691 53.6645 108.66L54.2455 108.325C54.2746 108.309 54.3072 108.301 54.3402 108.301C54.3732 108.301 54.4057 108.309 54.4349 108.325Z" fill="#3A2C6D"/>
<path d="M53.5761 107.832L54.2076 108.179C54.2581 108.211 54.2518 108.255 54.2076 108.293L53.6329 108.622C53.6026 108.637 53.5691 108.645 53.535 108.645C53.501 108.645 53.4674 108.637 53.4371 108.622L52.8056 108.268C52.7614 108.268 52.7614 108.192 52.8056 108.16L53.3803 107.826C53.4108 107.81 53.4448 107.802 53.479 107.803C53.5133 107.804 53.5466 107.814 53.5761 107.832Z" fill="#3A2C6D"/>
<path d="M52.7236 107.333L53.3551 107.686C53.4056 107.686 53.3993 107.762 53.3551 107.794L52.7741 108.129C52.7449 108.144 52.7124 108.152 52.6794 108.152C52.6463 108.152 52.6138 108.144 52.5846 108.129L51.9531 107.781C51.9026 107.781 51.9089 107.705 51.9531 107.674L52.5278 107.339C52.5581 107.324 52.5913 107.316 52.625 107.315C52.6587 107.314 52.6923 107.32 52.7236 107.333Z" fill="#3A2C6D"/>
<path d="M51.8647 106.84L52.4962 107.194C52.5467 107.194 52.5404 107.269 52.4962 107.301L51.9215 107.636C51.8912 107.651 51.8577 107.66 51.8237 107.66C51.7896 107.66 51.7561 107.651 51.7258 107.636L51.0943 107.288C51.0438 107.257 51.0501 107.212 51.0943 107.175L51.6752 106.84C51.7049 106.826 51.7372 106.818 51.77 106.818C51.8027 106.818 51.8351 106.826 51.8647 106.84Z" fill="#3A2C6D"/>
<path d="M62.1391 112.774L63.4021 113.501C63.4527 113.501 63.4463 113.577 63.4021 113.608L62.8212 113.943C62.792 113.959 62.7595 113.967 62.7264 113.967C62.6934 113.967 62.6609 113.959 62.6317 113.943L61.3687 113.223C61.3182 113.223 61.3245 113.141 61.3687 113.109L61.9434 112.774C61.9741 112.76 62.0075 112.753 62.0413 112.753C62.0751 112.753 62.1085 112.76 62.1391 112.774Z" fill="#3A2C6D"/>
<path d="M62.518 112.047L63.1495 112.395C63.2 112.395 63.1937 112.477 63.1495 112.509L62.5685 112.844C62.5389 112.858 62.5066 112.865 62.4738 112.865C62.4411 112.865 62.4087 112.858 62.3791 112.844L61.7476 112.496C61.6971 112.496 61.7034 112.414 61.7476 112.382L62.3223 112.047C62.3526 112.032 62.3861 112.024 62.4201 112.024C62.4542 112.024 62.4877 112.032 62.518 112.047Z" fill="#3A2C6D"/>
<path d="M61.6781 111.554L62.3096 111.902C62.3602 111.902 62.3538 111.978 62.3096 112.016L61.735 112.344C61.7047 112.36 61.6711 112.368 61.6371 112.368C61.6031 112.368 61.5695 112.36 61.5392 112.344L60.9077 111.99C60.8635 111.99 60.8698 111.915 60.9077 111.883L61.4824 111.548C61.5129 111.532 61.5468 111.525 61.5811 111.526C61.6153 111.527 61.6487 111.537 61.6781 111.554Z" fill="#3A2C6D"/>
<path d="M60.8256 111.055L61.4571 111.409C61.5077 111.409 61.5013 111.485 61.4571 111.516L60.8762 111.851C60.847 111.867 60.8145 111.875 60.7814 111.875C60.7484 111.875 60.7159 111.867 60.6867 111.851L60.0552 111.504C60.0047 111.504 60.011 111.428 60.0552 111.39L60.6299 111.061C60.6597 111.045 60.693 111.036 60.727 111.035C60.761 111.033 60.7948 111.04 60.8256 111.055Z" fill="#3A2C6D"/>
<path d="M59.9921 110.562L60.6235 110.91C60.6741 110.91 60.6677 110.992 60.6235 111.023L60.0489 111.358C60.0186 111.374 59.985 111.382 59.951 111.382C59.917 111.382 59.8834 111.374 59.8531 111.358L59.2216 111.011C59.1774 111.011 59.1774 110.929 59.2216 110.897L59.7963 110.562C59.8267 110.547 59.8602 110.539 59.8942 110.539C59.9281 110.539 59.9616 110.547 59.9921 110.562Z" fill="#3A2C6D"/>
<path d="M59.1143 110.069L59.7458 110.417C59.7963 110.417 59.79 110.499 59.7458 110.53L59.1648 110.865C59.1352 110.879 59.1028 110.887 59.0701 110.887C59.0373 110.887 59.0049 110.879 58.9753 110.865L58.3438 110.518C58.2933 110.518 58.2996 110.436 58.3438 110.404L58.9185 110.069C58.9488 110.054 58.9824 110.045 59.0164 110.045C59.0504 110.045 59.084 110.054 59.1143 110.069Z" fill="#3A2C6D"/>
<path d="M58.2555 109.576L58.887 109.924C58.9375 109.924 58.9312 110 58.887 110.038L58.3123 110.366C58.282 110.382 58.2484 110.39 58.2144 110.39C58.1804 110.39 58.1468 110.382 58.1165 110.366L57.485 110.012C57.4408 110.012 57.4408 109.936 57.485 109.905L58.0597 109.57C58.0902 109.554 58.1241 109.547 58.1584 109.548C58.1926 109.549 58.226 109.559 58.2555 109.576Z" fill="#3A2C6D"/>
<path d="M57.4029 109.077L58.0344 109.431C58.085 109.431 58.0786 109.507 58.0344 109.538L57.4535 109.873C57.4243 109.889 57.3918 109.897 57.3587 109.897C57.3257 109.897 57.2932 109.889 57.264 109.873L56.6325 109.526C56.582 109.526 56.5883 109.45 56.6325 109.418L57.2072 109.083C57.2375 109.068 57.2707 109.06 57.3044 109.059C57.3381 109.058 57.3717 109.064 57.4029 109.077Z" fill="#3A2C6D"/>
<path d="M56.5441 108.584L57.1756 108.938C57.2261 108.938 57.2198 109.014 57.1756 109.045L56.601 109.38C56.5707 109.396 56.5371 109.404 56.5031 109.404C56.469 109.404 56.4355 109.396 56.4052 109.38L55.7737 109.033C55.7295 109.001 55.7295 108.95 55.7737 108.919L56.3484 108.584C56.3788 108.569 56.4123 108.561 56.4462 108.561C56.4802 108.561 56.5137 108.569 56.5441 108.584Z" fill="#3A2C6D"/>
<path d="M55.6916 108.072L56.3231 108.42C56.3736 108.42 56.3673 108.502 56.3231 108.533L55.7421 108.868C55.7129 108.884 55.6804 108.892 55.6474 108.892C55.6143 108.892 55.5818 108.884 55.5526 108.868L54.9212 108.521C54.8706 108.489 54.8769 108.439 54.9212 108.407L55.4958 108.072C55.5261 108.056 55.5597 108.048 55.5937 108.048C55.6277 108.048 55.6613 108.056 55.6916 108.072Z" fill="#3A2C6D"/>
<path d="M54.8328 107.598L55.4642 107.946C55.5148 107.946 55.5084 108.021 55.4642 108.059L54.8896 108.394C54.8589 108.408 54.8255 108.416 54.7917 108.416C54.7579 108.416 54.7245 108.408 54.6938 108.394L54.0623 108.04C54.0181 108.04 54.0181 107.965 54.0623 107.933L54.637 107.598C54.6669 107.581 54.7006 107.573 54.7349 107.573C54.7691 107.573 54.8028 107.581 54.8328 107.598Z" fill="#3A2C6D"/>
<path d="M53.9802 107.105L54.6117 107.453C54.6623 107.453 54.6559 107.528 54.6117 107.56L54.0308 107.895C54.001 107.909 53.9687 107.916 53.936 107.916C53.9033 107.916 53.871 107.909 53.8413 107.895L53.2098 107.541C53.1593 107.541 53.1656 107.465 53.2098 107.434L53.7845 107.099C53.8153 107.084 53.8491 107.077 53.8831 107.078C53.9172 107.079 53.9504 107.089 53.9802 107.105Z" fill="#3A2C6D"/>
<path d="M52.0668 105.993L53.7276 106.96C53.7781 106.96 53.7718 107.036 53.7276 107.067L53.153 107.402C53.1227 107.418 53.0891 107.426 53.0551 107.426C53.021 107.426 52.9875 107.418 52.9572 107.402L51.2964 106.441C51.2458 106.441 51.2522 106.366 51.2964 106.334L51.871 105.999C51.9014 105.984 51.9345 105.976 51.9682 105.975C52.002 105.974 52.0355 105.98 52.0668 105.993Z" fill="#3A2C6D"/>
<path d="M63.3958 112.54L64.2168 113.021C64.2673 113.021 64.261 113.096 64.2168 113.128L63.6421 113.463C63.6118 113.478 63.5783 113.487 63.5442 113.487C63.5102 113.487 63.4766 113.478 63.4463 113.463L62.6191 112.989C62.5749 112.989 62.5812 112.907 62.6191 112.875L63.1937 112.54C63.2253 112.525 63.2598 112.517 63.2948 112.517C63.3298 112.517 63.3643 112.525 63.3958 112.54Z" fill="#3A2C6D"/>
<path d="M48.7136 107.933L60.8698 114.954C60.914 114.954 60.9077 115.03 60.8698 115.068L60.5857 115.233C60.5554 115.248 60.5218 115.256 60.4878 115.256C60.4537 115.256 60.4202 115.248 60.3899 115.233L48.221 108.217C48.1705 108.217 48.1768 108.142 48.221 108.104L48.5115 107.939C48.5416 107.921 48.5762 107.91 48.6117 107.909C48.6471 107.908 48.6823 107.916 48.7136 107.933Z" fill="#3A2C6D"/>
<path d="M63.0927 108.394L63.0106 108.439L60.9204 109.646L57.2009 107.497L57.1188 107.453L59.2911 106.201L63.0927 108.394Z" fill="#BFBFBF"/>
<path d="M63.0106 108.439L60.9204 109.646L57.2009 107.497L59.2911 106.29L63.0106 108.439Z" fill="#E5E5E5"/>
<path d="M69.0603 111.232V111.422C69.0561 111.55 69.019 111.676 68.9527 111.787C68.8864 111.897 68.7931 111.989 68.6814 112.054L61.2992 116.32C61.184 116.386 61.0534 116.421 60.9203 116.421C60.7873 116.421 60.6566 116.386 60.5415 116.32L47.1916 108.609C47.0767 108.541 46.9815 108.443 46.9151 108.327C46.8487 108.211 46.8134 108.08 46.8127 107.946V107.756L60.9203 115.909L69.0603 111.232Z" fill="#E5E5E5"/>
<path d="M60.9203 115.915V116.427C60.7872 116.429 60.6561 116.394 60.5415 116.326L47.1916 108.616C47.0767 108.547 46.9815 108.45 46.9151 108.334C46.8487 108.217 46.8134 108.086 46.8127 107.952V107.762L60.9203 115.915Z" fill="#E5E5E5"/>
<path d="M60.7057 116.029C60.5793 116.079 60.4432 116.1 60.3076 116.09C60.172 116.08 60.0404 116.04 59.9226 115.972L46.6612 108.293C46.5461 108.227 46.4472 108.136 46.3718 108.027C46.2964 107.917 46.2464 107.792 46.2255 107.661L44.7667 98.9775C44.7636 98.9291 44.7636 98.8806 44.7667 98.8322C44.7711 98.5941 44.8686 98.3672 45.0383 98.2002L58.8049 106.176C58.8925 106.223 58.9678 106.289 59.0249 106.371C59.0819 106.452 59.1191 106.545 59.1332 106.644L60.7057 116.029Z" fill="#F4F4F4"/>
<path d="M60.9204 115.921L60.8256 115.972C60.7875 115.995 60.7474 116.014 60.7057 116.029L59.1332 106.637C59.1191 106.539 59.0819 106.445 59.0249 106.364C58.9678 106.283 58.8925 106.216 58.8049 106.17L45.0004 98.1875C45.0529 98.1309 45.1149 98.0839 45.1835 98.0485L59.0196 106.043C59.1042 106.093 59.1769 106.16 59.2326 106.241C59.2882 106.322 59.3255 106.414 59.3416 106.511L60.9204 115.921Z" fill="#E5E5E5"/>
<path d="M243.441 80.441C244.537 82.3911 245.864 84.2012 247.395 85.8319C247.824 86.3249 251.114 85.0672 250.426 84.7133C249.737 84.3594 247.584 81.3574 246.504 79.3539C245.601 76.9639 244.834 74.5247 244.206 72.048C243.524 69.5958 242.943 65.9998 242.45 64.306C242.322 63.6796 242.015 63.1039 241.567 62.6484C241.119 62.193 240.548 61.8775 239.924 61.7401C238.743 61.4683 237.979 61.7906 238.194 63.2253C238.579 65.728 240.543 75.505 243.441 80.441Z" fill="#FFCEA9"/>
<path d="M241.56 118.715C242.576 119.543 244.086 118.784 244.155 118.86C245.36 119.981 246.625 121.036 247.944 122.02C248.575 122.52 249.573 123.189 249.39 124.15C249.068 125.875 246.321 125.345 245.285 124.82C244.25 124.295 243.391 123.423 242.418 122.81C241.717 122.374 241.029 122.147 240.915 121.262C240.827 120.712 241.376 118.696 241.56 118.715Z" fill="#38226D"/>
<path d="M240.909 120.883C241.042 121.73 241.724 121.963 242.418 122.393C243.416 123.025 244.313 123.91 245.33 124.434C246.346 124.959 248.677 125.401 249.352 124.175C248.986 125.831 246.283 125.313 245.26 124.807C244.237 124.302 243.366 123.411 242.393 122.798C241.692 122.362 241.004 122.134 240.89 121.249C240.885 121.127 240.891 121.004 240.909 120.883Z" fill="#9C73FF"/>
<path d="M251.897 112.755C252.914 113.583 254.701 112.679 254.777 112.755C255.837 113.83 256.959 114.843 258.136 115.789C258.768 116.288 259.766 116.958 259.582 117.919C259.267 119.644 256.513 119.113 255.478 118.588C254.442 118.064 253.583 117.192 252.611 116.579C251.91 116.143 251.221 115.915 251.108 115.03C251.045 114.499 251.714 112.736 251.897 112.755Z" fill="#38226D"/>
<path d="M251.139 114.796C251.278 115.643 251.954 115.877 252.649 116.307C253.646 116.939 254.543 117.824 255.566 118.348C256.589 118.873 258.913 119.322 259.589 118.089C259.223 119.751 256.52 119.227 255.49 118.721C254.461 118.216 253.596 117.324 252.63 116.711C251.929 116.275 251.24 116.079 251.127 115.169C251.122 115.045 251.126 114.92 251.139 114.796Z" fill="#9C73FF"/>
<path d="M227.926 86.0152C226.802 93.0746 229.934 95.7164 234.013 97.2142C236.937 98.295 241.13 99.9571 241.13 99.9571C241.13 99.9571 241.073 101.506 241.035 105.013C241.035 108.078 241.414 119.258 241.414 119.258C241.414 119.258 243.1 120.137 244.534 119.258C244.534 119.258 246.176 110.688 246.523 106.827C246.997 101.581 247.786 98.1559 247.534 97.0246C247.3 96.0324 241.579 93.2326 239.76 91.7095L251.758 95.729C251.52 97.0298 251.403 98.3502 251.411 99.6727C251.518 103.831 251.752 112.837 251.752 112.837C251.752 112.837 253.394 114.025 254.796 112.837C254.796 112.837 257.814 95.0212 257.448 92.6575C257.101 90.4202 246.536 85.8446 244.673 84.2709C244.348 84.0058 243.971 83.8125 243.566 83.7036C243.161 83.5946 242.738 83.5726 242.324 83.6389L227.926 86.0152Z" fill="#8C50FF"/>
<path d="M256.684 88.954L248.626 84.3025C248.556 84.262 248.476 84.2407 248.396 84.2407C248.315 84.2407 248.235 84.262 248.165 84.3025L234.026 92.4679L242.317 97.2585L256.684 88.954Z" fill="#F4F4F4"/>
<path d="M241.945 95.5458L241.313 95.8997C241.263 95.8997 241.269 95.9818 241.313 96.0134L241.894 96.3547C241.925 96.3703 241.958 96.3784 241.992 96.3784C242.026 96.3784 242.06 96.3703 242.09 96.3547L242.721 96.0008C242.766 96.0008 242.759 95.9186 242.721 95.887L242.134 95.5458C242.105 95.5303 242.073 95.5222 242.039 95.5222C242.006 95.5222 241.974 95.5303 241.945 95.5458Z" fill="#3A2C6D"/>
<path d="M242.81 95.0465L242.178 95.4004C242.128 95.4004 242.134 95.4762 242.178 95.5142L242.766 95.8491C242.796 95.8647 242.83 95.8727 242.864 95.8727C242.898 95.8727 242.931 95.8647 242.961 95.8491L243.593 95.4952C243.643 95.4952 243.637 95.4194 243.593 95.3814L243.006 95.0465C242.975 95.0309 242.942 95.0229 242.908 95.0229C242.874 95.0229 242.84 95.0309 242.81 95.0465Z" fill="#3A2C6D"/>
<path d="M243.688 94.5346L243.056 94.8885C243.006 94.9201 243.012 94.9706 243.056 95.0022L243.644 95.3435C243.674 95.3591 243.707 95.3671 243.741 95.3671C243.775 95.3671 243.809 95.3591 243.839 95.3435L244.471 94.9896C244.521 94.958 244.515 94.9074 244.471 94.8758L243.883 94.5346C243.853 94.5204 243.819 94.5131 243.786 94.5131C243.752 94.5131 243.718 94.5204 243.688 94.5346Z" fill="#3A2C6D"/>
<path d="M244.553 94.0416L243.921 94.3955C243.871 94.3955 243.877 94.4714 243.921 94.5093L244.502 94.8442C244.533 94.8598 244.566 94.8679 244.6 94.8679C244.634 94.8679 244.668 94.8598 244.698 94.8442L245.33 94.4903C245.38 94.4903 245.374 94.4145 245.33 94.3766L244.749 94.0416C244.718 94.0261 244.685 94.018 244.651 94.018C244.617 94.018 244.583 94.0261 244.553 94.0416Z" fill="#3A2C6D"/>
<path d="M245.418 93.536L244.787 93.8899C244.736 93.9215 244.742 93.9721 244.787 94.0037L245.374 94.345C245.404 94.3605 245.438 94.3686 245.472 94.3686C245.506 94.3686 245.539 94.3605 245.57 94.345L246.201 93.991C246.252 93.991 246.245 93.9089 246.201 93.8773L245.614 93.536C245.583 93.5205 245.55 93.5124 245.516 93.5124C245.482 93.5124 245.448 93.5205 245.418 93.536Z" fill="#3A2C6D"/>
<path d="M246.283 93.0367L245.652 93.3906C245.601 93.3906 245.607 93.4665 245.652 93.5044L246.239 93.8394C246.269 93.8549 246.303 93.863 246.337 93.863C246.371 93.863 246.404 93.8549 246.435 93.8394L247.066 93.4854C247.117 93.4854 247.11 93.4096 247.066 93.3717L246.479 93.0367C246.449 93.0212 246.415 93.0131 246.381 93.0131C246.347 93.0131 246.313 93.0212 246.283 93.0367Z" fill="#3A2C6D"/>
<path d="M247.161 92.5311L246.529 92.885C246.479 92.9166 246.485 92.9672 246.529 92.9988L247.11 93.3401C247.141 93.3556 247.174 93.3637 247.208 93.3637C247.242 93.3637 247.276 93.3556 247.306 93.3401L247.938 92.9862C247.988 92.9862 247.982 92.904 247.938 92.8724L247.357 92.5311C247.326 92.517 247.293 92.5096 247.259 92.5096C247.225 92.5096 247.192 92.517 247.161 92.5311Z" fill="#3A2C6D"/>
<path d="M248.026 92.0318L247.395 92.3858C247.344 92.3858 247.35 92.4616 247.395 92.4995L247.982 92.8345C248.012 92.85 248.046 92.8581 248.08 92.8581C248.114 92.8581 248.147 92.85 248.178 92.8345L248.809 92.4806C248.86 92.4806 248.853 92.4047 248.809 92.3668L248.222 92.0318C248.192 92.0163 248.158 92.0082 248.124 92.0082C248.09 92.0082 248.056 92.0163 248.026 92.0318Z" fill="#3A2C6D"/>
<path d="M248.898 91.5262L248.266 91.8802C248.216 91.9118 248.222 91.9623 248.266 91.9939L248.853 92.3352C248.884 92.3507 248.917 92.3588 248.951 92.3588C248.985 92.3588 249.019 92.3507 249.049 92.3352L249.681 91.9813C249.731 91.9497 249.725 91.8991 249.681 91.8675L249.093 91.5262C249.063 91.5121 249.029 91.5047 248.995 91.5047C248.962 91.5047 248.928 91.5121 248.898 91.5262Z" fill="#3A2C6D"/>
<path d="M249.769 91.008L249.138 91.3619C249.087 91.3619 249.093 91.4378 249.138 91.4757L249.718 91.8106C249.749 91.8262 249.782 91.8343 249.816 91.8343C249.85 91.8343 249.884 91.8262 249.914 91.8106L250.546 91.4504C250.596 91.4504 250.59 91.3746 250.546 91.3366L249.965 91.0017C249.934 90.9871 249.9 90.9801 249.866 90.9812C249.832 90.9823 249.799 90.9915 249.769 91.008Z" fill="#3A2C6D"/>
<path d="M250.634 90.5214L250.003 90.8753C249.952 90.9069 249.958 90.9574 250.003 90.989L250.59 91.3303C250.62 91.3458 250.654 91.354 250.688 91.354C250.722 91.354 250.755 91.3458 250.786 91.3303L251.417 90.9764C251.468 90.9448 251.461 90.8942 251.417 90.8626L250.83 90.5214C250.799 90.5072 250.766 90.4999 250.732 90.4999C250.698 90.4999 250.665 90.5072 250.634 90.5214Z" fill="#3A2C6D"/>
<path d="M251.506 90.0221L250.874 90.376C250.824 90.376 250.83 90.4518 250.874 90.4898L251.461 90.8247C251.492 90.8402 251.525 90.8483 251.559 90.8483C251.593 90.8483 251.627 90.8402 251.657 90.8247L252.289 90.4645C252.339 90.4645 252.333 90.3886 252.289 90.357L251.701 90.0158C251.671 90.0012 251.637 89.9942 251.603 89.9953C251.569 89.9964 251.535 90.0056 251.506 90.0221Z" fill="#3A2C6D"/>
<path d="M252.377 89.5165L251.746 89.8704C251.701 89.902 251.708 89.9526 251.746 89.9842L252.333 90.3254C252.362 90.3409 252.395 90.349 252.428 90.349C252.461 90.349 252.493 90.3409 252.522 90.3254L253.154 89.9715C253.204 89.9399 253.198 89.8894 253.154 89.8578L252.567 89.5165C252.537 89.5032 252.504 89.4964 252.472 89.4964C252.439 89.4964 252.407 89.5032 252.377 89.5165Z" fill="#3A2C6D"/>
<path d="M253.665 88.7707L252.63 89.3711C252.579 89.3711 252.585 89.447 252.63 89.4849L253.217 89.8198C253.247 89.8354 253.281 89.8435 253.315 89.8435C253.349 89.8435 253.382 89.8354 253.413 89.8198L254.448 89.2194C254.499 89.2194 254.493 89.1436 254.448 89.1057L253.867 88.7707C253.836 88.7541 253.802 88.7454 253.766 88.7454C253.731 88.7454 253.696 88.7541 253.665 88.7707Z" fill="#3A2C6D"/>
<path d="M242.387 94.3134L241.755 94.6673C241.705 94.6989 241.711 94.7494 241.755 94.781L242.343 95.1223C242.373 95.1379 242.406 95.146 242.441 95.146C242.475 95.146 242.508 95.1379 242.538 95.1223L243.17 94.7684C243.22 94.7368 243.214 94.6862 243.17 94.6546L242.583 94.3134C242.552 94.2978 242.519 94.2897 242.485 94.2897C242.451 94.2897 242.417 94.2978 242.387 94.3134Z" fill="#3A2C6D"/>
<path d="M243.258 93.8078L242.627 94.168C242.576 94.168 242.583 94.2438 242.627 94.2754L243.214 94.6167C243.244 94.6322 243.278 94.6403 243.312 94.6403C243.346 94.6403 243.38 94.6322 243.41 94.6167L244.041 94.2628C244.092 94.2628 244.086 94.187 244.041 94.149L243.454 93.8141C243.424 93.7976 243.391 93.7884 243.357 93.7873C243.323 93.7862 243.289 93.7932 243.258 93.8078Z" fill="#3A2C6D"/>
<path d="M244.13 93.3085L243.498 93.6624C243.448 93.694 243.454 93.7446 243.498 93.7762L244.086 94.1111C244.116 94.1266 244.149 94.1347 244.183 94.1347C244.217 94.1347 244.251 94.1266 244.281 94.1111L244.913 93.7572C244.963 93.7256 244.957 93.675 244.913 93.6434L244.326 93.3022C244.295 93.2876 244.261 93.2806 244.227 93.2817C244.193 93.2828 244.16 93.292 244.13 93.3085Z" fill="#3A2C6D"/>
<path d="M245.02 92.8029L244.389 93.1568C244.338 93.1568 244.344 93.239 244.389 93.2706L244.976 93.6118C245.006 93.6274 245.04 93.6355 245.074 93.6355C245.108 93.6355 245.141 93.6274 245.172 93.6118L245.803 93.2579C245.854 93.2579 245.847 93.1758 245.803 93.1442L245.216 92.8029C245.185 92.7887 245.152 92.7814 245.118 92.7814C245.084 92.7814 245.051 92.7887 245.02 92.8029Z" fill="#3A2C6D"/>
<path d="M245.866 92.3036L245.235 92.6575C245.184 92.6575 245.191 92.7397 245.235 92.7713L245.822 93.1126C245.852 93.1281 245.886 93.1362 245.92 93.1362C245.954 93.1362 245.988 93.1281 246.018 93.1126L246.649 92.7586C246.7 92.727 246.694 92.6765 246.649 92.6449L246.062 92.3036C246.031 92.2894 245.998 92.2821 245.964 92.2821C245.93 92.2821 245.897 92.2894 245.866 92.3036Z" fill="#3A2C6D"/>
<path d="M246.738 91.8043L246.106 92.1582C246.056 92.1582 246.062 92.2341 246.106 92.272L246.694 92.607C246.724 92.6225 246.757 92.6306 246.792 92.6306C246.826 92.6306 246.859 92.6225 246.889 92.607L247.521 92.253C247.571 92.253 247.565 92.1772 247.521 92.1393L246.934 91.8043C246.903 91.7888 246.87 91.7807 246.836 91.7807C246.802 91.7807 246.768 91.7888 246.738 91.8043Z" fill="#3A2C6D"/>
<path d="M247.609 91.2987L246.978 91.6526C246.934 91.6526 246.94 91.7348 246.978 91.7664L247.565 92.1077C247.595 92.1217 247.627 92.129 247.66 92.129C247.693 92.129 247.725 92.1217 247.755 92.1077L248.386 91.7538C248.437 91.7222 248.43 91.6716 248.386 91.64L247.799 91.2987C247.769 91.2842 247.737 91.2767 247.704 91.2767C247.671 91.2767 247.639 91.2842 247.609 91.2987Z" fill="#3A2C6D"/>
<path d="M248.481 90.7931L247.849 91.147C247.799 91.1786 247.805 91.2292 247.849 91.2608L248.43 91.6021C248.461 91.6176 248.494 91.6257 248.528 91.6257C248.562 91.6257 248.596 91.6176 248.626 91.6021L249.257 91.2482C249.308 91.2482 249.302 91.166 249.257 91.1344L248.677 90.7994C248.647 90.7829 248.613 90.7737 248.579 90.7726C248.545 90.7715 248.512 90.7786 248.481 90.7931Z" fill="#3A2C6D"/>
<path d="M249.352 90.2938L248.721 90.6477C248.67 90.6477 248.677 90.7236 248.721 90.7615L249.302 91.0965C249.332 91.112 249.366 91.1201 249.4 91.1201C249.434 91.1201 249.467 91.112 249.497 91.0965L250.129 90.7362C250.179 90.7362 250.173 90.6604 250.129 90.6288L249.548 90.2875C249.517 90.273 249.483 90.2659 249.449 90.267C249.415 90.2681 249.382 90.2773 249.352 90.2938Z" fill="#3A2C6D"/>
<path d="M250.217 89.7882L249.586 90.1422C249.535 90.1738 249.542 90.2243 249.586 90.2559L250.173 90.5972C250.203 90.6127 250.237 90.6208 250.271 90.6208C250.305 90.6208 250.339 90.6127 250.369 90.5972L251 90.2433C251.051 90.2117 251.045 90.1611 251 90.1295L250.413 89.7882C250.383 89.7727 250.349 89.7646 250.315 89.7646C250.281 89.7646 250.248 89.7727 250.217 89.7882Z" fill="#3A2C6D"/>
<path d="M251.089 89.2826L250.457 89.6429C250.407 89.6429 250.413 89.7187 250.457 89.7503L251.045 90.0916C251.075 90.1071 251.108 90.1152 251.143 90.1152C251.177 90.1152 251.21 90.1071 251.24 90.0916L251.872 89.7377C251.922 89.7377 251.916 89.6618 251.872 89.6239L251.285 89.289C251.255 89.2724 251.222 89.2632 251.187 89.2622C251.153 89.2611 251.12 89.2681 251.089 89.2826Z" fill="#3A2C6D"/>
<path d="M251.967 88.7834L251.335 89.1373C251.285 89.1689 251.291 89.2194 251.335 89.251L251.922 89.586C251.953 89.6015 251.986 89.6096 252.02 89.6096C252.054 89.6096 252.088 89.6015 252.118 89.586L252.75 89.2321C252.8 89.2005 252.794 89.1499 252.75 89.1183L252.162 88.777C252.132 88.7625 252.098 88.7555 252.064 88.7566C252.03 88.7576 251.996 88.7668 251.967 88.7834Z" fill="#3A2C6D"/>
<path d="M241.515 94.8L240.486 95.3941C240.436 95.4257 240.442 95.4762 240.486 95.5078L241.073 95.8491C241.104 95.8633 241.137 95.8706 241.171 95.8706C241.205 95.8706 241.238 95.8633 241.269 95.8491L242.298 95.2487C242.349 95.2487 242.343 95.1729 242.298 95.1413L241.711 94.8C241.681 94.7845 241.647 94.7764 241.613 94.7764C241.579 94.7764 241.546 94.7845 241.515 94.8Z" fill="#3A2C6D"/>
<path d="M253.621 88.7391L252.99 89.093C252.962 89.1085 252.93 89.1167 252.898 89.1167C252.866 89.1167 252.835 89.1085 252.806 89.093L252.175 88.7391C252.124 88.7391 252.124 88.6633 252.175 88.6317H252.226C252.27 88.6317 252.27 88.5558 252.226 88.5306L251.594 88.1514C251.581 88.1514 251.568 88.146 251.558 88.1366C251.549 88.1271 251.544 88.1142 251.544 88.1008C251.544 88.0874 251.549 88.0745 251.558 88.065C251.568 88.0556 251.581 88.0502 251.594 88.0502L251.979 87.8227C252.007 87.8072 252.039 87.7991 252.071 87.7991C252.103 87.7991 252.134 87.8072 252.162 87.8227L252.794 88.1766L252.92 88.2525L253.015 88.303L253.103 88.3536L253.634 88.6633C253.638 88.6689 253.642 88.6754 253.644 88.6825C253.646 88.6895 253.646 88.6969 253.645 88.7041C253.644 88.7113 253.641 88.7182 253.637 88.7242C253.633 88.7303 253.627 88.7353 253.621 88.7391Z" fill="#3A2C6D"/>
<path d="M238.573 93.5992L237.941 93.9531C237.891 93.9531 237.897 94.029 237.941 94.0669L238.528 94.4018C238.559 94.4174 238.592 94.4255 238.626 94.4255C238.66 94.4255 238.694 94.4174 238.724 94.4018L239.356 94.0479C239.406 94.0479 239.4 93.9721 239.356 93.9342L238.768 93.5992C238.738 93.5837 238.705 93.5756 238.67 93.5756C238.636 93.5756 238.603 93.5837 238.573 93.5992Z" fill="#3A2C6D"/>
<path d="M239.444 93.0936L238.813 93.4475C238.762 93.4475 238.768 93.5297 238.813 93.5613L239.394 93.9026C239.424 93.9181 239.457 93.9262 239.491 93.9262C239.525 93.9262 239.559 93.9181 239.589 93.9026L240.221 93.5486C240.271 93.517 240.265 93.4665 240.221 93.4349L239.64 93.0999C239.61 93.0834 239.577 93.0742 239.543 93.0731C239.509 93.072 239.475 93.079 239.444 93.0936Z" fill="#3A2C6D"/>
<path d="M240.309 92.5943L239.678 92.9482C239.627 92.9798 239.634 93.0304 239.678 93.062L240.265 93.4033C240.296 93.4174 240.329 93.4248 240.363 93.4248C240.397 93.4248 240.43 93.4174 240.461 93.4033L241.092 93.0494C241.143 93.0178 241.136 92.9672 241.092 92.9356L240.505 92.5943C240.475 92.5788 240.441 92.5707 240.407 92.5707C240.373 92.5707 240.34 92.5788 240.309 92.5943Z" fill="#3A2C6D"/>
<path d="M247.691 88.3283L247.06 88.6822C247.009 88.7138 247.016 88.7644 247.06 88.796L247.647 89.1373C247.678 89.1514 247.711 89.1588 247.745 89.1588C247.779 89.1588 247.812 89.1514 247.843 89.1373L248.474 88.7834C248.525 88.7518 248.519 88.7012 248.474 88.6696L247.887 88.3283C247.857 88.3128 247.823 88.3047 247.789 88.3047C247.755 88.3047 247.722 88.3128 247.691 88.3283Z" fill="#3A2C6D"/>
<path d="M248.557 87.848L247.925 88.2019C247.875 88.2019 247.881 88.2778 247.925 88.3157L248.512 88.6506C248.543 88.6662 248.576 88.6743 248.61 88.6743C248.644 88.6743 248.678 88.6662 248.708 88.6506L249.34 88.2904C249.39 88.2904 249.384 88.2145 249.34 88.1829L248.752 87.8417C248.722 87.8271 248.688 87.8201 248.654 87.8212C248.62 87.8223 248.586 87.8315 248.557 87.848Z" fill="#3A2C6D"/>
<path d="M249.441 87.3234L248.809 87.6837C248.759 87.6837 248.765 87.7595 248.809 87.7911L249.39 88.1324C249.42 88.1479 249.454 88.156 249.488 88.156C249.522 88.156 249.556 88.1479 249.586 88.1324L250.217 87.7785C250.268 87.7785 250.262 87.7026 250.217 87.6647L249.636 87.3297C249.607 87.3132 249.573 87.304 249.539 87.3029C249.505 87.3018 249.471 87.3089 249.441 87.3234Z" fill="#3A2C6D"/>
<path d="M250.293 86.8242L249.662 87.1781C249.611 87.2097 249.617 87.2602 249.662 87.2918L250.249 87.6331C250.279 87.6486 250.313 87.6567 250.347 87.6567C250.381 87.6567 250.414 87.6486 250.445 87.6331L251.076 87.2792C251.127 87.2476 251.12 87.197 251.076 87.1654L250.489 86.8242C250.458 86.81 250.425 86.8027 250.391 86.8027C250.357 86.8027 250.324 86.81 250.293 86.8242Z" fill="#3A2C6D"/>
<path d="M241.402 91.9623L240.562 92.449C240.511 92.449 240.518 92.5248 240.562 92.5627L241.149 92.8977C241.179 92.9132 241.213 92.9213 241.247 92.9213C241.281 92.9213 241.315 92.9132 241.345 92.8977L242.185 92.411C242.229 92.3794 242.223 92.3289 242.185 92.2973L241.597 91.9623C241.567 91.9457 241.534 91.937 241.5 91.937C241.465 91.937 241.432 91.9457 241.402 91.9623Z" fill="#3A2C6D"/>
<path d="M246.826 88.8276L245.986 89.3142C245.936 89.3142 245.942 89.3901 245.986 89.428L246.574 89.763C246.604 89.7785 246.637 89.7866 246.672 89.7866C246.706 89.7866 246.739 89.7785 246.769 89.763L247.609 89.2763C247.66 89.2447 247.653 89.1942 247.609 89.1626L247.022 88.8276C246.992 88.8121 246.958 88.804 246.924 88.804C246.89 88.804 246.857 88.8121 246.826 88.8276Z" fill="#3A2C6D"/>
<path d="M245.734 89.4596L241.654 91.817C241.604 91.8486 241.61 91.8991 241.654 91.9307L242.242 92.272C242.272 92.2875 242.305 92.2956 242.339 92.2956C242.374 92.2956 242.407 92.2875 242.437 92.272L246.517 89.9146C246.567 89.883 246.561 89.8325 246.517 89.8009L245.93 89.4596C245.899 89.4441 245.866 89.436 245.832 89.436C245.798 89.436 245.764 89.4441 245.734 89.4596Z" fill="#3A2C6D"/>
<path d="M241.781 93.6877L241.149 94.0479C241.099 94.0479 241.105 94.1237 241.149 94.1553L241.736 94.4966C241.767 94.5122 241.8 94.5203 241.834 94.5203C241.868 94.5203 241.902 94.5122 241.932 94.4966L242.564 94.1427C242.614 94.1427 242.608 94.0669 242.564 94.029L241.976 93.694C241.947 93.6775 241.913 93.6683 241.879 93.6672C241.845 93.6661 241.811 93.6731 241.781 93.6877Z" fill="#3A2C6D"/>
<path d="M242.652 93.1884L242.021 93.5423C241.97 93.5739 241.976 93.6245 242.021 93.6561L242.608 93.9974C242.639 94.0115 242.672 94.0189 242.706 94.0189C242.739 94.0189 242.773 94.0115 242.804 93.9974L243.435 93.6434C243.486 93.6118 243.479 93.5613 243.435 93.5297L242.848 93.1884C242.817 93.1729 242.784 93.1648 242.75 93.1648C242.716 93.1648 242.682 93.1729 242.652 93.1884Z" fill="#3A2C6D"/>
<path d="M243.517 92.6891L242.886 93.043C242.835 93.043 242.841 93.1189 242.886 93.1568L243.473 93.4918C243.503 93.5073 243.537 93.5154 243.571 93.5154C243.605 93.5154 243.638 93.5073 243.669 93.4918L244.3 93.1378C244.351 93.1378 244.344 93.062 244.3 93.0241L243.713 92.6891C243.683 92.6736 243.649 92.6655 243.615 92.6655C243.581 92.6655 243.547 92.6736 243.517 92.6891Z" fill="#3A2C6D"/>
<path d="M244.389 92.1835L243.757 92.5374C243.707 92.569 243.713 92.6196 243.757 92.6512L244.344 92.9925C244.375 93.008 244.408 93.0161 244.442 93.0161C244.476 93.0161 244.51 93.008 244.54 92.9925L245.172 92.6386C245.222 92.607 245.216 92.5564 245.172 92.5248L244.584 92.1835C244.554 92.1693 244.52 92.162 244.487 92.162C244.453 92.162 244.419 92.1693 244.389 92.1835Z" fill="#3A2C6D"/>
<path d="M245.254 91.6842L244.622 92.0382C244.572 92.0698 244.578 92.1203 244.622 92.1519L245.21 92.4869C245.24 92.5024 245.273 92.5105 245.307 92.5105C245.342 92.5105 245.375 92.5024 245.405 92.4869L246.037 92.133C246.087 92.1014 246.081 92.0508 246.037 92.0192L245.45 91.6779C245.419 91.6634 245.385 91.6563 245.351 91.6574C245.317 91.6585 245.284 91.6677 245.254 91.6842Z" fill="#3A2C6D"/>
<path d="M246.125 91.1786L245.494 91.5389C245.443 91.5389 245.45 91.6147 245.494 91.6463L246.081 91.9876C246.111 92.0031 246.145 92.0112 246.179 92.0112C246.213 92.0112 246.247 92.0031 246.277 91.9876L246.908 91.6337C246.959 91.6337 246.953 91.5578 246.908 91.5199L246.321 91.185C246.291 91.1684 246.258 91.1593 246.224 91.1582C246.19 91.1571 246.156 91.1641 246.125 91.1786Z" fill="#3A2C6D"/>
<path d="M246.997 90.6794L246.365 91.0333C246.315 91.0649 246.321 91.1154 246.365 91.147L246.953 91.4883C246.983 91.5025 247.017 91.5098 247.05 91.5098C247.084 91.5098 247.118 91.5025 247.148 91.4883L247.78 91.1344C247.83 91.1028 247.824 91.0522 247.78 91.0206L247.193 90.6794C247.163 90.6628 247.129 90.6541 247.095 90.6541C247.06 90.6541 247.027 90.6628 246.997 90.6794Z" fill="#3A2C6D"/>
<path d="M247.862 90.1801L247.23 90.534C247.18 90.534 247.186 90.6098 247.23 90.6478L247.818 90.9827C247.848 90.9983 247.882 91.0063 247.916 91.0063C247.95 91.0063 247.983 90.9983 248.013 90.9827L248.645 90.6288C248.695 90.6288 248.689 90.553 248.645 90.515L248.058 90.1801C248.027 90.1646 247.994 90.1565 247.96 90.1565C247.926 90.1565 247.892 90.1646 247.862 90.1801Z" fill="#3A2C6D"/>
<path d="M248.733 89.6745L248.102 90.0284C248.051 90.06 248.058 90.1106 248.102 90.1422L248.683 90.4834C248.713 90.499 248.747 90.5071 248.781 90.5071C248.815 90.5071 248.848 90.499 248.879 90.4834L249.51 90.1295C249.554 90.0979 249.548 90.0474 249.51 90.0158L248.929 89.6745C248.898 89.6603 248.865 89.653 248.831 89.653C248.797 89.653 248.764 89.6603 248.733 89.6745Z" fill="#3A2C6D"/>
<path d="M249.599 89.1752L248.967 89.5291C248.916 89.5607 248.923 89.6113 248.967 89.6429L249.554 89.9778C249.585 89.9934 249.618 90.0014 249.652 90.0014C249.686 90.0014 249.72 89.9934 249.75 89.9778L250.382 89.6239C250.432 89.5923 250.426 89.5418 250.382 89.5102L249.794 89.1689C249.763 89.1543 249.73 89.1473 249.696 89.1484C249.662 89.1495 249.628 89.1587 249.599 89.1752Z" fill="#3A2C6D"/>
<path d="M250.47 88.6696L249.838 89.0298C249.788 89.0298 249.794 89.1057 249.838 89.1373L250.419 89.4786C250.45 89.4941 250.483 89.5022 250.517 89.5022C250.551 89.5022 250.585 89.4941 250.615 89.4786L251.247 89.1246C251.297 89.1246 251.291 89.0488 251.247 89.0109L250.666 88.6759C250.636 88.6594 250.603 88.6502 250.569 88.6491C250.535 88.648 250.501 88.655 250.47 88.6696Z" fill="#3A2C6D"/>
<path d="M251.335 88.1703L250.704 88.5242C250.653 88.5558 250.659 88.6064 250.704 88.638L251.291 88.9793C251.322 88.9934 251.355 89.0008 251.389 89.0008C251.423 89.0008 251.456 88.9934 251.487 88.9793L252.118 88.6254C252.169 88.5938 252.162 88.5432 252.118 88.5116L251.531 88.1703C251.501 88.1548 251.467 88.1467 251.433 88.1467C251.399 88.1467 251.365 88.1548 251.335 88.1703Z" fill="#3A2C6D"/>
<path d="M240.915 94.168L239.652 94.9011C239.602 94.9327 239.608 94.9833 239.652 95.0149L240.24 95.3498C240.27 95.3654 240.304 95.3735 240.338 95.3735C240.372 95.3735 240.405 95.3654 240.435 95.3498L241.698 94.6167C241.749 94.5851 241.743 94.5346 241.698 94.503L241.111 94.1617C241.08 94.1471 241.047 94.1401 241.013 94.1412C240.978 94.1423 240.945 94.1515 240.915 94.168Z" fill="#3A2C6D"/>
<path d="M240.511 93.4538L239.88 93.8078C239.829 93.8078 239.836 93.8899 239.88 93.9215L240.461 94.2565C240.491 94.272 240.525 94.2801 240.559 94.2801C240.593 94.2801 240.626 94.272 240.657 94.2565L241.288 93.9026C241.339 93.9026 241.332 93.8204 241.288 93.7888L240.707 93.4475C240.676 93.433 240.642 93.4259 240.608 93.427C240.574 93.4281 240.541 93.4373 240.511 93.4538Z" fill="#3A2C6D"/>
<path d="M241.376 92.9482L240.745 93.3085C240.694 93.3085 240.701 93.3843 240.745 93.4159L241.332 93.7572C241.363 93.7727 241.396 93.7808 241.43 93.7808C241.464 93.7808 241.498 93.7727 241.528 93.7572L242.159 93.4033C242.21 93.4033 242.204 93.3274 242.159 93.2895L241.572 92.9546C241.542 92.938 241.509 92.9289 241.475 92.9278C241.441 92.9267 241.407 92.9337 241.376 92.9482Z" fill="#3A2C6D"/>
<path d="M242.248 92.449L241.616 92.8029C241.566 92.8029 241.572 92.885 241.616 92.9166L242.197 93.2579C242.228 93.2721 242.261 93.2794 242.295 93.2794C242.329 93.2794 242.362 93.2721 242.393 93.2579L243.025 92.904C243.075 92.904 243.069 92.8218 243.025 92.7902L242.444 92.449C242.413 92.4334 242.38 92.4253 242.346 92.4253C242.312 92.4253 242.278 92.4334 242.248 92.449Z" fill="#3A2C6D"/>
<path d="M243.126 91.9497L242.494 92.3036C242.444 92.3036 242.45 92.3794 242.494 92.4174L243.081 92.7523C243.111 92.7695 243.145 92.7786 243.179 92.7786C243.214 92.7786 243.247 92.7695 243.277 92.7523L243.909 92.3984C243.959 92.3984 243.953 92.3226 243.909 92.2846L243.321 91.9497C243.291 91.9342 243.258 91.926 243.224 91.926C243.19 91.926 243.156 91.9342 243.126 91.9497Z" fill="#3A2C6D"/>
<path d="M243.985 91.4441L243.353 91.798C243.302 91.8296 243.309 91.8802 243.353 91.9118L243.934 92.253C243.964 92.2686 243.998 92.2767 244.032 92.2767C244.066 92.2767 244.099 92.2686 244.13 92.253L244.761 91.8991C244.812 91.8991 244.805 91.817 244.761 91.7854L244.18 91.4441C244.15 91.4299 244.116 91.4226 244.082 91.4226C244.049 91.4226 244.015 91.4299 243.985 91.4441Z" fill="#3A2C6D"/>
<path d="M244.85 90.9448L244.218 91.2987C244.168 91.2987 244.174 91.3809 244.218 91.4125L244.805 91.7474C244.836 91.763 244.869 91.7711 244.903 91.7711C244.937 91.7711 244.971 91.763 245.001 91.7474L245.633 91.3935C245.683 91.3935 245.677 91.3113 245.633 91.2797L245.045 90.9385C245.015 90.9239 244.981 90.9169 244.947 90.918C244.913 90.9191 244.879 90.9283 244.85 90.9448Z" fill="#3A2C6D"/>
<path d="M245.721 90.4392L245.09 90.7994C245.039 90.7994 245.045 90.8753 245.09 90.9069L245.671 91.2482C245.701 91.2637 245.734 91.2718 245.768 91.2718C245.803 91.2718 245.836 91.2637 245.866 91.2482L246.498 90.8942C246.548 90.8942 246.542 90.8184 246.498 90.7805L245.917 90.4455C245.887 90.429 245.854 90.4198 245.82 90.4187C245.786 90.4176 245.752 90.4246 245.721 90.4392Z" fill="#3A2C6D"/>
<path d="M246.586 89.9399L245.955 90.2938C245.904 90.2938 245.911 90.376 245.955 90.4076L246.542 90.7489C246.572 90.7644 246.606 90.7725 246.64 90.7725C246.674 90.7725 246.708 90.7644 246.738 90.7489L247.369 90.395C247.42 90.395 247.414 90.3128 247.369 90.2812L246.782 89.9399C246.752 89.9244 246.718 89.9163 246.684 89.9163C246.65 89.9163 246.617 89.9244 246.586 89.9399Z" fill="#3A2C6D"/>
<path d="M247.458 89.4406L246.826 89.7946C246.776 89.7946 246.782 89.8704 246.826 89.9083L247.407 90.2433C247.438 90.2588 247.471 90.2669 247.505 90.2669C247.539 90.2669 247.573 90.2588 247.603 90.2433L248.234 89.883C248.285 89.883 248.279 89.8072 248.234 89.7756L247.653 89.4343C247.623 89.4198 247.589 89.4127 247.555 89.4138C247.521 89.4149 247.488 89.4241 247.458 89.4406Z" fill="#3A2C6D"/>
<path d="M248.323 88.935L247.691 89.289C247.641 89.3206 247.647 89.3711 247.691 89.4027L248.279 89.744C248.309 89.7595 248.343 89.7676 248.377 89.7676C248.411 89.7676 248.444 89.7595 248.474 89.744L249.106 89.3901C249.156 89.3901 249.15 89.3079 249.106 89.2763L248.519 88.9414C248.489 88.9248 248.456 88.9157 248.422 88.9146C248.387 88.9135 248.354 88.9205 248.323 88.935Z" fill="#3A2C6D"/>
<path d="M249.194 88.4358L248.563 88.7897C248.512 88.7897 248.519 88.8718 248.563 88.9034L249.144 89.2384C249.174 89.2539 249.208 89.262 249.242 89.262C249.276 89.262 249.309 89.2539 249.34 89.2384L249.971 88.8845C250.022 88.8845 250.015 88.8023 249.971 88.7707L249.39 88.4294C249.359 88.4149 249.326 88.4079 249.291 88.409C249.257 88.4101 249.224 88.4192 249.194 88.4358Z" fill="#3A2C6D"/>
<path d="M251.133 87.3108L249.441 88.2904C249.39 88.2904 249.396 88.3663 249.441 88.4042L250.028 88.7391C250.058 88.7547 250.092 88.7628 250.126 88.7628C250.16 88.7628 250.193 88.7547 250.224 88.7391L251.91 87.7658C251.96 87.7658 251.954 87.6837 251.91 87.6521L251.322 87.3171C251.294 87.3016 251.261 87.293 251.229 87.2919C251.196 87.2908 251.163 87.2973 251.133 87.3108Z" fill="#3A2C6D"/>
<path d="M239.64 93.9531L238.8 94.4398C238.756 94.4398 238.762 94.5156 238.8 94.5535L239.387 94.8885C239.416 94.904 239.449 94.9121 239.482 94.9121C239.515 94.9121 239.548 94.904 239.577 94.8885L240.417 94.4082C240.467 94.4082 240.461 94.326 240.417 94.2944L239.829 93.9531C239.799 93.9399 239.767 93.933 239.735 93.933C239.702 93.933 239.67 93.9399 239.64 93.9531Z" fill="#3A2C6D"/>
<path d="M254.537 89.2763L242.204 96.4053C242.153 96.4053 242.159 96.4811 242.204 96.519L242.501 96.6834C242.531 96.6989 242.564 96.707 242.598 96.707C242.632 96.707 242.666 96.6989 242.696 96.6834L255.023 89.5544C255.074 89.5228 255.067 89.4722 255.023 89.4406L254.733 89.27C254.701 89.2568 254.668 89.2505 254.634 89.2516C254.6 89.2527 254.567 89.2611 254.537 89.2763Z" fill="#3A2C6D"/>
<path d="M240.107 89.5923L240.189 89.6429L242.317 90.8753L246.106 88.6822L246.182 88.638L243.972 87.3614L240.107 89.5923Z" fill="#BFBFBF"/>
<path d="M240.189 89.6429L242.317 90.8753L246.106 88.6822L243.972 87.4498L240.189 89.6429Z" fill="#E5E5E5"/>
<path d="M234.026 92.4679V92.6575C234.026 92.7947 234.063 92.9293 234.131 93.048C234.2 93.1666 234.299 93.2652 234.417 93.3338L241.926 97.6693C242.044 97.7413 242.179 97.7785 242.317 97.7767C242.453 97.7784 242.587 97.7411 242.703 97.6693L256.292 89.8198C256.412 89.7523 256.511 89.6539 256.58 89.535C256.649 89.4162 256.685 89.281 256.684 89.1436V88.954L242.317 97.2585L234.026 92.4679Z" fill="#E5E5E5"/>
<path d="M242.538 97.3722C242.666 97.4229 242.804 97.4435 242.94 97.4326C243.077 97.4216 243.21 97.3793 243.328 97.309L256.861 89.4912C256.977 89.425 257.077 89.3342 257.155 89.225C257.232 89.1158 257.285 88.9909 257.309 88.8592L258.787 80.0112C258.793 79.9608 258.793 79.9099 258.787 79.8595C258.782 79.6214 258.685 79.3945 258.515 79.2275L244.452 87.355C244.367 87.4065 244.294 87.4754 244.237 87.557C244.181 87.6387 244.142 87.7314 244.123 87.829L242.538 97.3722Z" fill="#F4F4F4"/>
<path d="M242.317 97.2585L242.412 97.309L242.538 97.3722L244.136 87.8038C244.154 87.7061 244.193 87.6134 244.25 87.5318C244.306 87.4501 244.38 87.3813 244.464 87.3298L258.528 79.2022C258.472 79.1454 258.408 79.0965 258.338 79.0569L244.25 87.216C244.161 87.2633 244.085 87.3309 244.028 87.4133C243.971 87.4957 243.935 87.5906 243.921 87.69L242.317 97.2585Z" fill="#E5E5E5"/>
<path d="M232.106 59.408C232.106 59.408 232.277 62.7766 232.201 63.0736C232.125 63.3706 230.66 64.3376 230.231 64.7105C229.801 65.0834 232.554 67.782 233.893 68.395C235.232 69.0081 239.469 67.3902 239.545 65.3046C239.621 63.219 238.819 61.4746 238.168 61.3798C237.518 61.285 232.106 59.408 232.106 59.408Z" fill="#FFCEA9"/>
<path d="M231.759 63.6677C231.759 63.6677 234.196 67.3017 237.6 67.6493C238.674 66.5875 238.775 62.8208 237.284 61.62C237.284 61.62 238.648 60.514 239.583 60.7289C240.588 61.3369 241.337 62.2924 241.686 63.4149C242.553 65.9163 242.96 68.5544 242.886 71.2011C242.829 74.7656 242.886 83.7906 242.886 83.7906C242.686 84.8558 242.263 85.8667 241.645 86.7566C241.026 87.6466 240.227 88.3955 239.299 88.954C236.847 90.3418 233.958 90.7418 231.222 90.0727C229.498 89.6682 228.854 88.7012 228.26 87.4498C228.418 84.9218 229.403 79.8026 228.993 76.6553C228.582 73.5079 227.907 71.1632 227.73 68.6162C227.553 66.0693 228.065 66.1262 229.34 65.2224C230.108 64.6467 230.916 64.1271 231.759 63.6677Z" fill="#F4F4F4"/>
<path d="M235.636 92.6575C235.03 92.2513 234.397 91.8861 233.742 91.5642C233.125 91.3692 232.564 91.0289 232.106 90.5719C231.506 89.9842 230.527 87.7658 229.826 85.6044C229.129 83.1665 228.851 80.6275 229.005 78.0962C229.302 75.0626 230.395 70.8156 230.673 69.0713C230.95 67.327 230.382 66.6318 229.574 65.9934C228.62 65.235 227.307 65.57 226.606 68.0158C225.699 71.3975 225.169 74.8695 225.027 78.368C224.996 80.9674 225.397 83.554 226.214 86.0215C226.937 88.1359 227.915 90.1542 229.125 92.0318C229.46 92.6006 229.567 93.0999 230.079 94.2502C230.573 95.4069 231.34 96.4262 232.315 97.2206C233.167 97.8526 233.577 97.9221 233.773 97.8083C233.969 97.6946 233.975 97.3849 233.615 97.0563C233.009 96.5848 232.493 96.0065 232.093 95.3498C232.093 95.3498 232.839 96.1019 233.356 96.5127C233.793 96.8739 234.272 97.1796 234.784 97.4228C235.289 97.6377 235.977 97.2142 235.63 96.8793C235.283 96.5443 234.91 96.38 234.196 95.7607C233.816 95.4362 233.477 95.067 233.186 94.661C233.687 95.0432 234.217 95.3856 234.771 95.6848C235.195 95.9414 235.684 96.0728 236.179 96.064C236.444 96.064 236.767 95.6848 236.274 95.3246C235.594 94.9805 234.958 94.5561 234.379 94.0606C233.836 93.517 233.527 93.0557 233.679 93.0494C233.83 93.043 234.127 93.378 234.771 93.5803C235.415 93.7825 236.097 93.5802 236.179 93.2453C236.261 92.9103 236.236 92.9546 235.636 92.6575Z" fill="#FFCEA9"/>
<path d="M239.709 54.4089C239.311 51.7987 237.43 49.8206 234.739 49.9849C233.372 50.068 232.092 50.6884 231.179 51.7111C230.266 52.7337 229.794 54.0758 229.864 55.4454C229.907 56.2334 230.131 57.0009 230.519 57.6882C230.907 58.3755 231.448 58.964 232.1 59.408C232.196 59.8034 232.336 60.187 232.517 60.5519C233.47 61.6642 236.35 62.3531 237.177 62.233C237.67 62.1937 238.139 62.0069 238.524 61.6969C238.91 61.3869 239.193 60.9682 239.337 60.495C240.208 58.441 239.93 55.6982 239.709 54.4089Z" fill="#FFCEA9"/>
<path d="M232.1 59.408L232.352 57.1328C232.352 57.1328 230.489 52.3106 234.878 53.2397C237.777 53.8717 238.509 54.1118 239.387 52.1653C240.265 50.2187 237.158 48.4681 233.464 48.9547C232.19 49.0877 231.013 49.695 230.166 50.6562C229.319 51.6174 228.864 52.8622 228.892 54.1434C228.993 55.616 229.372 58.4853 232.1 59.408Z" fill="#3A2C6D"/>
<path d="M224.579 72.503C224.579 72.503 226.978 74.8857 229.814 74.2031C230.224 73.925 231.197 68.3445 231.197 68.3445C231.197 68.3445 231.197 65.254 228.829 65.3362C226.461 65.4183 224.579 72.503 224.579 72.503Z" fill="#EDEDED"/>
<path d="M242.69 67.8705C243.36 67.843 243.995 67.5605 244.464 67.0805C244.37 65.8165 242.772 61.0828 239.551 60.7605C240.43 61.3725 241.126 62.2111 241.566 63.1874C242.059 64.7176 242.435 66.2831 242.69 67.8705Z" fill="#EDEDED"/>
</svg>
